<?xml version="1.0" encoding="UTF-8" standalone="no"?>
<!DOCTYPE svg PUBLIC "-//W3C//DTD SVG 1.1//EN" "http://www.w3.org/Graphics/SVG/1.1/DTD/svg11.dtd">
<svg width="360.00" height="516.48" viewBox="0.00 0.00 1500.00 2152.00" xmlns="http://www.w3.org/2000/svg" xmlns:xlink="http://www.w3.org/1999/xlink">
<g stroke-linecap="round" id="Layer_5">
<path d="M852.00,2019.00 C855.92,2019.78 869.56,2022.49 872.86,2022.92 C886.39,2024.68 928.62,2025.33 944.34,2025.43 C963.56,2025.24 1000.06,2024.72 1017.34,2024.37 C1039.85,2023.70 1054.11,2022.62 1059.29,2021.04 C1066.50,2018.50 1098.33,2010.08 1113.05,2006.39 C1134.51,2000.70 1161.27,1992.48 1176.76,1987.62 C1191.39,1982.93 1218.55,1974.44 1230.68,1970.98 C1242.54,1967.94 1272.39,1957.79 1289.37,1951.84 C1323.85,1939.15 1386.09,1916.13 1413.84,1905.81 C1414.56,1905.54 1415.28,1905.27 1416.00,1905.00" fill="none" stroke="rgb(60, 198, 253)" stroke-width="1218.90" stroke-opacity="1.00" stroke-linejoin="round"/>
<path d="M1743.00,2007.00 C1733.05,2002.01 1724.65,1998.19 1714.83,1995.83 C1695.48,1991.22 1620.74,1976.13 1589.01,1969.98 C1563.27,1965.82 1502.24,1954.63 1471.60,1948.89 C1454.95,1946.13 1422.00,1941.00 1407.30,1939.13 C1392.70,1937.58 1363.49,1934.88 1348.89,1933.73 C1332.78,1932.76 1299.63,1930.99 1282.59,1930.20 C1250.01,1929.11 1183.73,1927.26 1150.04,1926.49 C1117.15,1926.17 1055.12,1926.13 1027.63,1925.90 C997.36,1924.90 935.06,1921.69 907.66,1920.75 C875.53,1920.37 814.39,1919.91 785.38,1919.83 C750.93,1919.86 682.80,1920.01 649.11,1920.13 C616.13,1920.28 552.91,1920.26 525.59,1919.72 C507.80,1919.07 473.47,1916.91 458.62,1915.48 C444.37,1913.86 415.75,1910.36 399.92,1908.03 C369.26,1902.85 306.62,1891.69 274.64,1885.72 C260.77,1882.90 230.84,1876.59 220.52,1874.06 C187.66,1865.07 121.44,1846.57 88.08,1837.06 C65.18,1830.68 39.27,1824.58 34.45,1822.59 C29.53,1820.51 14.95,1809.51 12.00,1807.50 C8.76,1805.31 -6.31,1796.82 -9.00,1794.00 C-10.36,1792.57 -12.82,1788.88 -13.50,1788.00 C-14.16,1787.15 -20.57,1780.87 -21.00,1779.00 C-21.20,1778.14 -21.58,1774.68 -22.50,1773.00 C-23.16,1771.84 -30.50,1765.10 -31.50,1764.00 C-33.95,1761.28 -36.26,1756.44 -36.30,1754.05 C-36.31,1753.16 -35.84,1734.21 -36.10,1724.86 C-36.65,1713.64 -36.41,1704.93 -34.79,1696.53 C-32.97,1688.50 -29.22,1671.06 -29.54,1666.43 C-29.61,1665.52 -30.11,1657.87 -29.73,1654.34 C-29.38,1651.27 -26.07,1627.45 -26.03,1627.09 C-25.35,1621.84 -13.66,1578.68 -8.71,1560.76 C-2.84,1538.91 -1.85,1531.22 4.91,1510.04 C10.51,1493.03 21.07,1460.85 26.03,1445.68 C29.02,1436.47 42.55,1406.83 49.50,1392.00 C62.11,1364.97 87.74,1311.37 100.77,1284.80 C115.72,1255.01 143.91,1199.50 157.15,1173.78 C173.72,1143.59 208.12,1081.88 225.96,1050.35 C233.56,1037.03 247.48,1012.74 253.81,1001.77 C266.50,980.45 273.43,967.50 280.22,954.80 C296.10,924.42 328.00,864.09 344.04,834.14 C351.10,821.40 368.96,789.94 372.28,783.44 C377.24,773.17 392.29,737.02 396.56,727.37 C401.85,716.07 414.25,694.35 422.63,676.43 C430.66,658.35 441.76,635.50 451.33,617.59 C467.37,588.92 490.94,546.00 497.42,535.95 C506.52,522.57 526.62,492.98 532.36,483.93 C534.34,480.71 551.78,445.24 557.94,432.98 C566.15,417.03 582.29,386.40 590.51,371.80 C599.47,356.73 638.26,294.52 654.24,268.25 C671.81,241.89 714.71,180.02 724.74,167.07 C734.60,154.33 759.45,122.01 761.73,118.64 C763.63,115.83 808.40,63.28 808.50,63.00 C808.59,62.77 808.59,62.27 808.50,61.50 C807.59,60.91 805.62,60.19 804.00,60.00 C802.84,59.87 793.03,60.30 791.09,59.19 C787.89,57.33 785.28,56.88 779.62,56.66 C774.78,56.54 750.77,57.07 746.37,57.82 C743.31,58.36 725.11,64.13 722.80,64.79 C714.57,67.12 674.22,76.15 658.50,79.50 C645.15,82.07 619.95,87.23 602.92,91.28 C586.93,95.15 553.63,103.36 536.30,107.68 C520.91,111.74 487.70,120.86 472.53,125.49 C459.18,129.84 432.14,140.62 417.83,147.31 C389.85,161.45 334.03,189.53 306.17,203.47 C299.66,206.91 290.85,212.24 286.17,215.70 C269.53,228.57 207.95,277.90 182.32,297.66 C178.92,300.15 168.65,307.52 163.13,313.13 C156.59,319.79 126.16,356.42 123.39,359.89 C119.54,364.73 113.64,372.22 106.79,382.13 C98.54,394.65 80.67,422.21 71.03,437.24 C60.23,454.74 44.83,481.89 37.64,496.96 C35.08,502.39 28.79,515.71 27.37,520.27 C26.01,524.71 23.39,541.65 22.24,549.43 C21.01,559.52 20.54,571.25 20.79,582.22 C20.96,587.46 21.39,592.65 22.20,594.53 C23.64,597.83 32.47,614.40 36.60,622.13 C42.18,632.31 47.94,641.86 50.93,644.49 C55.30,648.29 92.64,677.05 100.79,684.62 C110.76,694.27 134.48,716.54 141.53,723.54 C145.52,727.64 153.87,736.58 160.26,742.13 C171.81,752.14 258.68,817.52 261.11,819.24 C272.39,826.92 319.32,855.51 335.55,864.62 C345.53,869.97 378.76,884.52 392.00,890.22 C408.00,896.84 439.48,909.45 454.28,914.86 C473.48,921.37 496.83,928.22 515.12,932.84 C545.87,940.22 625.51,959.05 631.82,961.41 C637.96,963.82 673.76,971.34 689.05,974.48 C707.07,978.06 740.23,984.60 755.37,987.55 C770.62,990.30 791.54,993.19 807.13,994.84 C823.60,996.49 859.16,998.16 869.99,998.26 C896.17,998.43 955.35,998.70 988.34,998.80 C1028.13,998.85 1107.09,998.87 1146.26,998.86 C1178.23,998.78 1234.96,998.55 1259.73,998.41 C1275.89,998.28 1304.00,994.89 1316.16,992.52 C1330.39,989.81 1361.72,983.53 1375.07,980.44 C1406.86,972.62 1470.25,956.57 1501.85,948.34 C1521.61,942.82 1546.73,934.62 1559.16,931.14 C1571.83,927.85 1579.64,925.30 1588.53,921.11 C1595.09,917.93 1610.37,909.93 1618.40,905.62 C1624.97,901.98 1640.00,893.54 1643.75,890.56 C1646.49,888.38 1659.91,876.03 1665.97,872.26 C1669.83,869.91 1674.37,866.84 1676.76,864.72 C1681.95,860.06 1687.63,850.72 1692.75,844.05 C1699.41,835.65 1707.31,825.16 1709.05,820.42 C1710.95,815.11 1713.28,800.15 1714.12,794.10 C1714.91,789.41 1721.52,768.64 1723.20,764.23 C1726.24,756.30 1733.12,743.02 1737.51,736.49 C1741.69,730.44 1750.52,718.54 1755.20,712.59 C1760.82,705.58 1768.82,693.29 1772.62,686.31 C1775.05,681.82 1783.33,664.31 1786.50,657.00 C1789.76,648.95 1795.41,633.62 1798.02,626.33 C1802.24,615.01 1815.18,587.55 1821.74,573.05 C1828.17,559.02 1838.89,535.69 1839.27,534.19 C1839.94,531.33 1839.65,523.17 1838.70,518.29 C1837.38,511.70 1832.36,497.39 1828.62,488.41 C1818.91,466.32 1808.33,447.84 1804.88,443.34 C1803.55,441.62 1799.60,437.43 1797.20,436.21 C1795.90,435.59 1793.35,435.33 1792.21,435.68 C1789.85,436.51 1788.00,439.29 1784.50,446.29 C1780.84,453.62 1769.75,467.30 1763.74,473.04 C1758.11,478.39 1748.41,485.97 1737.58,493.83 C1731.22,498.37 1718.18,507.54 1711.51,512.17 C1703.31,517.60 1691.15,524.66 1685.53,528.22 C1674.72,535.19 1657.84,549.29 1656.90,549.88 C1650.91,553.55 1632.18,559.85 1621.30,562.60 C1610.56,565.18 1573.45,572.41 1553.60,575.73 C1536.63,578.51 1508.33,583.14 1497.00,585.00" fill="none" stroke="rgb(60, 198, 253)" stroke-width="1218.90" stroke-opacity="1.00" stroke-linejoin="round"/>
<path d="M1091.29,-60.97 C1090.97,-63.12 1089.63,-66.06 1088.24,-67.06 C1087.59,-67.52 1072.46,-68.05 1062.34,-68.04 C1047.91,-67.76 1008.45,-65.29 991.28,-63.97 C945.62,-60.19 919.11,-59.13 877.94,-54.53 C843.23,-50.46 775.23,-42.02 741.94,-37.64 C724.24,-34.88 689.77,-29.18 674.58,-26.28 C645.93,-20.09 587.89,-7.14 558.49,-0.39 C542.80,3.34 511.44,11.06 495.78,15.04 C480.39,19.26 449.96,27.93 434.91,32.39 C404.48,41.97 343.75,60.48 313.44,69.41 C282.98,77.56 222.05,94.04 192.04,103.64 C175.79,109.22 143.14,121.31 126.75,127.82 C99.43,139.06 57.64,156.47 43.67,162.67 C35.45,166.54 11.64,180.17 -2.81,188.92 C-30.04,205.64 -95.53,246.56 -115.45,259.92 C-130.15,270.01 -158.96,290.10 -173.07,300.10 C-184.28,308.29 -210.96,328.13 -218.18,334.96 C-221.66,338.28 -226.01,344.48 -233.50,353.85 C-252.67,377.35 -302.11,437.46 -317.72,457.56 C-322.38,463.79 -333.47,478.93 -335.31,481.63 C-342.39,492.31 -351.28,506.93 -354.82,513.90 C-358.10,520.39 -362.79,532.92 -364.97,539.36 C-369.79,554.79 -375.32,579.48 -378.77,598.93 C-387.09,655.00 -393.04,698.26 -394.70,719.66 C-395.21,728.06 -396.07,744.76 -396.28,752.93 C-396.26,760.94 -395.76,779.13 -395.39,785.04 C-394.77,793.01 -392.97,806.91 -391.27,815.67 C-388.49,828.53 -366.21,911.17 -361.94,932.11 C-360.40,940.31 -358.42,948.57 -354.42,962.62 C-344.75,993.81 -323.24,1058.44 -311.38,1093.48 C-306.29,1107.81 -294.82,1139.42 -288.53,1154.62 C-284.89,1163.05 -272.80,1185.31 -271.30,1188.84 C-269.15,1193.96 -267.84,1201.61 -267.67,1202.46 C-266.74,1206.97 -261.46,1217.85 -259.39,1222.03 C-253.57,1233.06 -238.84,1259.97 -229.93,1275.85 C-212.96,1304.62 -179.29,1361.04 -162.58,1388.69 C-144.50,1418.04 -109.19,1474.45 -91.96,1501.52 C-70.67,1533.74 -34.78,1585.44 -18.51,1608.47 C-10.60,1619.59 6.18,1643.08 15.05,1655.45 C22.64,1665.45 43.78,1689.41 51.52,1698.88 C61.74,1712.06 79.46,1736.50 88.90,1749.78 C107.31,1776.98 143.17,1830.87 160.74,1856.53 C169.78,1869.08 188.41,1893.72 198.02,1905.73 C207.85,1917.52 228.32,1940.36 239.08,1951.62 C260.95,1973.81 298.52,2011.64 305.68,2018.37 C311.45,2023.53 323.38,2033.49 330.12,2038.46 C341.39,2046.49 378.96,2069.08 382.39,2071.61 C389.85,2077.09 395.25,2080.03 405.90,2085.02 C415.91,2089.55 430.00,2094.50 437.16,2095.75 C446.46,2097.32 482.48,2097.14 496.88,2095.99 C506.28,2095.22 517.85,2093.14 526.17,2090.73 C531.68,2089.12 547.08,2083.40 554.22,2080.48 C560.31,2077.93 588.78,2063.26 603.06,2054.48 C621.85,2042.36 643.54,2027.45 655.06,2019.46 C668.37,2010.02 695.74,1990.40 709.79,1980.22 C723.25,1970.21 749.74,1950.18 762.77,1940.16 C775.53,1929.95 800.53,1909.58 812.78,1899.42 C824.49,1889.33 847.34,1869.15 858.47,1859.08 C869.18,1849.02 891.19,1827.31 901.88,1816.28 C916.99,1800.22 963.97,1746.86 984.77,1722.17 C1006.50,1695.68 1046.96,1645.91 1065.70,1622.64 C1076.74,1608.36 1096.80,1582.06 1104.70,1571.13 C1112.51,1559.70 1126.63,1537.30 1133.08,1526.31 C1148.32,1498.74 1179.38,1442.18 1195.19,1413.19 C1212.67,1381.21 1244.16,1323.79 1258.17,1298.35 C1265.78,1284.41 1278.56,1260.41 1284.38,1247.42 C1289.13,1236.17 1300.94,1207.59 1305.43,1195.59 C1311.88,1177.37 1323.08,1142.59 1327.39,1128.54 C1337.07,1094.88 1354.90,1031.86 1363.07,1002.50 C1367.69,984.84 1375.59,953.65 1378.07,942.07 C1382.56,919.09 1394.24,844.90 1397.17,819.87 C1398.87,802.58 1401.04,769.56 1401.65,753.31 C1402.00,736.80 1401.89,703.83 1401.66,687.62 C1401.13,672.60 1399.38,643.15 1397.23,624.93 C1394.99,608.45 1383.90,552.36 1373.82,507.02 C1371.90,499.28 1367.81,483.54 1365.64,475.53 C1361.08,460.93 1351.32,430.77 1345.91,415.34 C1340.53,400.79 1328.30,370.95 1321.35,356.52 C1315.90,345.68 1301.26,319.37 1291.11,303.20 C1274.02,277.61 1242.35,233.99 1237.31,226.70 C1233.12,220.44 1231.81,214.63 1231.51,213.38" fill="none" stroke="rgb(60, 198, 253)" stroke-width="1218.90" stroke-opacity="1.00" stroke-linejoin="round"/>
<path d="M1356.00,1695.00 C1338.75,1713.29 1294.99,1759.72 1268.49,1787.87 C1256.00,1800.83 1232.94,1824.44 1222.36,1835.09 C1217.79,1839.54 1206.81,1850.09 1198.92,1855.68 C1194.21,1858.98 1186.07,1863.62 1182.64,1864.96 C1179.18,1866.26 1174.35,1866.77 1171.30,1866.31 C1165.81,1865.41 1150.06,1859.94 1144.50,1857.00 C1143.46,1856.45 1084.72,1816.65 1062.03,1801.15 C1035.20,1782.56 977.40,1742.31 946.44,1720.64 C911.83,1696.23 845.12,1648.86 813.02,1625.89 C785.25,1605.60 734.05,1567.70 710.62,1550.09 C691.52,1535.16 664.50,1513.82 664.22,1513.61 C662.13,1512.02 655.80,1503.92 653.51,1500.51 C651.04,1496.79 647.21,1489.65 645.84,1486.22 C644.51,1482.80 642.94,1476.21 642.73,1473.13 C642.72,1472.96 641.72,1453.00 641.09,1445.46 C639.38,1429.13 637.18,1401.24 634.91,1385.02 C632.25,1368.10 627.34,1335.25 625.46,1320.18 C622.98,1298.32 621.86,1226.89 621.30,1195.87 C620.46,1163.02 619.00,1099.57 618.37,1068.97 C618.33,1054.68 619.71,1026.37 621.39,1006.76 C623.27,989.49 626.73,958.00 628.31,943.77 C630.27,924.73 632.10,899.72 634.43,889.20 C636.42,880.33 647.89,844.06 652.91,828.74 C658.32,812.78 669.50,780.29 675.27,763.78 C677.59,757.35 682.88,742.88 684.73,740.33 C685.58,739.19 692.46,734.20 694.60,731.81 C696.73,729.46 725.31,696.21 735.82,684.09 C745.76,672.86 771.24,644.61 773.74,642.27 C778.53,637.78 789.74,622.45 792.00,619.63 C794.59,616.47 798.41,613.57 802.67,611.87 C805.61,610.69 811.64,605.69 813.00,604.50 C820.88,597.72 831.95,590.03 835.32,587.38 C838.51,584.90 841.69,583.41 846.16,581.76 C876.85,571.41 923.22,556.13 938.91,551.19 C947.65,548.63 955.87,547.96 963.43,546.03 C967.62,544.94 974.74,542.68 976.52,541.72 C979.28,540.23 981.36,539.96 986.62,539.83 C994.80,539.77 1012.04,539.78 1021.09,539.85 C1031.68,540.00 1040.49,541.40 1044.96,542.97 C1048.42,544.20 1108.65,582.29 1110.36,583.22 C1114.41,585.43 1116.66,587.12 1119.60,589.99 C1122.95,593.28 1137.35,607.90 1141.30,610.89 C1143.71,612.71 1160.17,627.69 1162.82,629.68 C1165.81,631.79 1168.20,634.23 1170.87,637.86 C1175.23,643.63 1188.87,654.91 1189.89,656.15 C1192.07,658.94 1196.44,664.38 1200.00,667.50 C1202.39,669.57 1210.37,674.98 1211.41,675.69 C1217.45,679.83 1227.65,691.57 1232.09,698.12 C1241.17,711.89 1263.63,748.20 1264.50,750.00 C1265.72,752.60 1266.44,755.90 1266.00,757.50 C1265.74,758.42 1263.33,761.62 1262.98,762.33 C1261.57,765.17 1260.53,773.40 1260.33,776.08 C1259.70,784.61 1260.02,801.18 1260.77,809.11 C1261.22,813.84 1263.86,831.80 1265.27,839.71 C1268.56,856.41 1275.20,881.06 1275.52,882.78 C1276.54,888.46 1276.79,929.33 1276.72,946.95 C1276.53,963.92 1276.00,996.81 1275.65,1012.73 C1274.89,1037.00 1273.87,1051.80 1272.22,1055.33 C1272.08,1055.61 1267.45,1063.32 1266.68,1066.11 C1265.82,1069.37 1265.62,1078.82 1266.00,1080.00 C1266.35,1081.06 1267.96,1083.93 1268.30,1085.36 C1269.36,1089.89 1269.36,1102.71 1268.35,1110.87 C1263.76,1143.75 1256.18,1195.49 1253.50,1209.91 C1251.61,1219.31 1248.13,1230.50 1246.52,1235.57 C1244.49,1241.81 1237.97,1257.70 1236.32,1260.99 C1233.22,1267.10 1224.88,1278.24 1221.26,1282.97 C1214.08,1292.10 1207.14,1302.01 1203.00,1309.50 C1197.14,1320.18 1185.39,1350.54 1179.68,1365.40 C1169.52,1391.35 1146.95,1449.11 1134.55,1480.91 C1122.13,1512.58 1102.18,1563.08 1099.11,1569.70 C1097.14,1573.90 1054.40,1646.20 1037.48,1673.61 C1020.62,1699.49 985.63,1752.14 967.49,1778.90 C958.29,1792.27 939.50,1819.30 929.92,1832.98 C920.22,1846.43 898.71,1875.65 895.50,1879.50 C891.62,1884.15 886.11,1889.89 883.86,1891.65 C878.09,1896.10 840.62,1917.48 831.03,1922.24 C823.91,1925.66 809.86,1932.33 802.93,1935.59 C790.39,1941.40 780.49,1945.72 775.73,1946.57 C775.30,1946.64 766.88,1946.83 762.99,1947.46 C760.01,1947.96 740.53,1952.29 735.00,1953.00 C728.32,1953.86 697.41,1955.75 674.78,1956.16 C639.71,1956.16 584.19,1956.00 579.94,1955.47 C575.67,1954.90 542.40,1943.69 537.00,1941.00 C530.50,1937.72 519.61,1927.94 514.09,1924.71 C508.88,1921.63 503.76,1913.62 498.74,1904.68 C482.36,1875.02 448.73,1815.05 431.48,1784.73 C421.19,1766.61 414.32,1751.40 413.68,1750.43 C408.47,1743.05 405.08,1737.17 400.67,1728.34 C395.18,1717.02 354.90,1646.81 336.60,1615.07 C329.02,1602.08 311.72,1572.57 301.98,1556.05 C292.63,1540.69 282.82,1523.11 276.70,1511.14 C270.12,1497.67 254.94,1463.85 250.15,1451.74 C242.08,1430.14 218.51,1359.26 208.17,1327.68 C203.79,1314.04 195.78,1288.74 192.16,1277.08 C183.61,1246.47 166.00,1182.01 156.95,1148.18 C152.78,1132.32 144.87,1101.90 141.13,1087.35 C135.10,1062.63 130.88,1041.75 128.65,1030.27 C126.03,1015.06 119.64,976.66 118.76,970.33 C116.16,950.37 114.67,929.27 114.34,911.63 C114.37,895.64 114.74,863.12 115.30,847.39 C116.28,830.65 119.24,799.51 120.85,784.83 C123.23,766.93 128.24,739.73 131.65,725.57 C135.60,709.97 144.05,677.35 147.38,668.79 C151.22,659.04 164.15,634.02 173.65,619.01 C181.50,607.31 198.75,581.96 208.15,568.30 C218.13,554.08 238.15,525.92 248.18,511.99 C266.93,486.83 292.88,452.25 306.51,434.93 C311.10,429.41 319.72,419.51 322.52,417.33 C324.84,415.53 339.02,402.05 344.93,396.32 C350.33,391.11 360.14,381.70 365.20,378.19 C367.36,376.69 381.26,365.76 386.33,362.21 C392.29,358.13 425.96,339.86 440.13,332.72 C457.94,324.18 482.34,313.71 496.67,308.78 C510.63,304.41 539.30,296.60 553.88,292.88 C566.06,290.07 575.81,287.11 583.10,284.86 C591.43,282.17 607.17,277.48 613.50,276.05 C621.62,274.28 704.95,262.29 738.95,257.45 C758.36,254.71 793.76,249.79 809.75,247.61 C822.25,245.98 849.37,242.45 864.89,243.09 C878.79,243.46 917.98,244.27 926.31,244.70 C942.48,245.74 976.28,248.26 986.33,249.57 C994.20,250.75 1031.05,259.75 1043.59,263.00 C1078.55,272.23 1145.72,290.16 1177.91,298.85 C1194.15,303.49 1216.37,310.59 1229.05,314.99 C1243.20,320.11 1272.90,331.09 1288.07,337.06 C1302.66,343.10 1331.08,355.77 1345.26,362.27 C1375.83,377.10 1457.34,416.64 1459.11,417.57 C1468.66,422.62 1525.90,461.49 1538.10,469.96 C1546.67,476.16 1571.93,498.33 1583.34,508.51 C1595.85,520.17 1620.25,543.46 1631.88,555.15 C1642.59,566.26 1662.00,586.50 1674.61,600.15 C1679.20,605.30 1687.55,615.08 1691.78,620.58 C1699.30,630.64 1720.04,665.17 1725.22,671.69 C1728.73,676.27 1747.18,710.00 1754.79,724.31 C1764.10,742.42 1774.90,765.44 1780.42,779.48 C1785.85,793.74 1794.05,817.20 1799.33,836.09 C1803.69,851.37 1813.94,886.98 1816.58,897.09 C1818.86,906.34 1820.37,916.32 1820.68,925.46 C1822.08,955.09 1824.48,1017.70 1825.47,1050.68 C1825.68,1056.90 1826.08,1073.02 1826.28,1082.92 C1826.29,1088.74 1825.16,1097.72 1823.56,1106.28 C1821.37,1116.69 1812.21,1151.88 1808.65,1164.92 C1799.44,1197.64 1780.64,1262.92 1771.06,1295.49 C1769.12,1301.88 1764.38,1317.37 1764.00,1318.50 C1760.62,1328.78 1757.04,1335.84 1751.63,1347.00 C1745.48,1359.71 1731.60,1388.55 1723.87,1404.67 C1716.63,1419.22 1702.46,1446.95 1695.54,1460.13 C1688.37,1472.94 1673.91,1498.29 1666.62,1510.83 C1648.90,1539.92 1614.50,1593.96 1597.10,1621.04 C1588.49,1634.71 1572.12,1661.15 1564.35,1673.92 C1557.44,1685.77 1544.31,1708.83 1538.08,1720.04 C1524.24,1746.67 1492.83,1811.00 1479.40,1839.00 C1464.64,1870.35 1434.39,1934.82 1418.90,1967.94 C1412.31,1981.90 1399.96,2007.97 1394.19,2020.09 C1386.80,2035.14 1366.94,2074.05 1362.78,2080.89 C1356.87,2090.59 1345.50,2110.51 1339.79,2121.24 C1336.96,2126.85 1329.40,2142.19 1328.16,2144.33 C1324.42,2150.68 1311.97,2166.13 1303.47,2174.95 C1296.95,2181.69 1268.52,2207.37 1254.95,2218.91 C1226.66,2241.92 1187.18,2273.96 1176.00,2283.01" fill="none" stroke="rgb(192, 237, 255)" stroke-width="2000.00" stroke-opacity="1.00" stroke-linejoin="round"/>
</g>
</svg>
