<?xml version="1.0" encoding="UTF-8" standalone="no"?>
<!DOCTYPE svg PUBLIC "-//W3C//DTD SVG 1.1//EN" "http://www.w3.org/Graphics/SVG/1.1/DTD/svg11.dtd">
<svg width="1452.00" height="673.00" viewBox="0.00 0.00 1452.00 673.00" xmlns="http://www.w3.org/2000/svg" xmlns:xlink="http://www.w3.org/1999/xlink">
<g stroke-linecap="round" id="Layer_3">
<path d="M884.30,347.93 C881.69,347.92 875.15,347.87 871.90,347.60 C868.78,347.34 860.22,346.01 859.11,345.91 C854.04,345.48 839.61,347.96 833.44,350.11 C831.10,350.93 813.52,357.93 806.35,361.10 C799.49,364.30 783.72,372.10 780.21,374.00 C776.12,376.23 761.08,386.02 757.54,388.75 C754.10,391.43 747.68,397.31 746.56,399.31 C746.03,400.27 745.68,402.09 745.59,403.24 C747.44,404.55 750.90,405.14 754.71,404.50 C764.13,402.81 786.39,393.90 808.74,384.11 C838.63,370.57 897.07,343.68 925.61,330.32 C933.45,326.62 937.85,324.30 947.68,318.43 C951.89,315.87 953.68,314.53 955.50,311.52 C955.92,310.80 956.33,310.08 956.75,309.37 C956.11,308.37 954.74,306.92 953.65,306.34 C950.84,304.88 934.18,305.53 926.75,306.62 C913.21,308.77 883.47,315.70 869.83,319.41 C857.94,322.91 825.32,334.17 811.08,339.54 C800.12,343.95 769.33,358.08 755.85,364.74 C743.56,371.06 715.13,387.93 705.51,394.15 C698.71,398.78 684.76,408.97 680.22,412.59 C672.18,419.25 663.39,427.33 657.81,433.64 C654.30,437.66 651.70,441.00 649.90,444.01 C648.09,447.09 646.65,451.28 646.31,454.57 C646.18,456.19 647.18,458.68 648.55,460.10 C650.61,462.15 654.59,462.99 658.06,462.98 C663.42,462.89 676.78,458.98 682.45,456.48 C687.41,454.25 700.62,447.60 708.51,443.15 C719.01,436.97 745.34,419.63 757.29,411.14 C769.10,402.44 791.73,384.77 803.71,374.81 C809.41,369.93 822.53,358.11 826.67,354.10 C832.16,348.69 843.31,335.69 846.53,330.64 C848.27,327.87 851.10,321.41 851.31,320.65 C851.93,318.24 849.56,309.81 847.96,308.48 C847.42,308.06 841.30,304.95 838.94,304.30 C832.77,302.64 818.51,302.11 809.67,302.64 C803.61,303.01 787.21,305.20 779.99,306.36 C762.31,309.60 737.83,315.09 724.44,318.19 C713.57,320.94 611.77,349.33 602.12,351.17 C597.42,352.02 576.14,354.89 573.89,354.97 C569.09,355.12 555.01,352.93 548.61,350.48 C540.87,347.49 527.97,340.05 523.47,336.59 C520.36,334.18 515.82,329.77 513.31,327.44 C509.92,324.14 502.57,310.28 499.29,306.36 C495.86,302.31 482.92,291.97 480.27,289.14 C480.27,289.14 480.97,290.63 480.97,290.63 C480.89,290.63 486.17,290.38 489.28,289.84 C494.85,288.84 535.42,276.31 546.85,273.19 C588.68,262.30 644.10,248.93 662.40,245.74 C670.90,244.43 713.11,235.09 718.92,233.48 C723.38,232.31 764.41,224.27 780.46,220.97 C793.34,217.97 822.45,211.36 838.68,207.75 C854.50,204.39 882.19,198.71 900.67,196.04 C917.26,193.66 953.88,188.65 963.43,187.88 C968.90,187.50 987.27,188.88 989.98,190.32 C991.72,191.28 997.05,195.96 999.01,198.37 C1002.94,203.28 1009.71,214.59 1014.19,224.10 C1018.19,232.82 1021.82,244.08 1022.72,249.90 C1023.34,254.04 1026.54,288.75 1026.45,292.29 C1025.84,285.37 1024.58,271.58 1023.35,264.33 C1020.70,249.87 1014.99,221.44 1011.93,207.47 C1010.08,199.39 1006.67,184.18 1006.61,180.54 C1006.59,181.52 1004.02,187.30 1002.56,189.63 C1000.22,193.29 964.79,233.42 962.30,236.86 C960.48,239.41 955.56,248.08 955.32,248.79 C954.71,250.67 954.77,253.79 955.55,255.01 C956.34,256.14 959.07,257.57 960.94,257.87 C963.92,258.29 969.04,257.68 971.02,257.22 C973.84,256.52 979.58,253.62 980.28,251.77 C980.77,250.24 977.42,247.31 974.90,246.34 C970.45,244.68 957.21,243.43 950.00,243.28 C936.37,243.17 904.58,245.55 888.26,247.26 C866.06,250.05 795.35,261.31 765.44,266.77 C750.88,269.60 720.73,275.77 705.14,279.11 C688.81,282.91 656.27,290.63 643.13,294.04 C635.82,296.08 619.25,300.83 616.20,301.93 C612.70,303.21 597.34,310.44 592.74,311.80 C586.81,313.54 576.37,314.25 568.15,315.07 C559.05,316.14 542.42,318.77 539.19,320.11 C535.89,321.54 533.08,324.14 531.89,326.93 C530.78,329.67 530.41,346.56 531.34,353.56 C532.40,360.98 534.67,376.32 536.36,382.10 C538.42,389.00 541.07,395.58 546.84,406.44 C553.06,418.71 565.88,442.85 572.47,454.70 C576.47,462.07 584.77,473.72 587.38,478.89 C588.32,480.76 592.32,489.58 593.79,492.75 C595.06,495.66 600.00,512.67 601.61,519.93 C604.25,533.65 607.32,549.41 607.74,551.45 C606.30,548.88 599.90,532.51 596.78,524.45 C590.78,508.07 582.81,481.05 576.78,466.11 C573.95,459.35 570.65,452.49 570.25,451.65 C575.44,469.87 580.40,493.77 583.63,509.51 C584.31,512.84 585.23,517.31 585.47,518.46 C584.33,515.07 578.08,498.86 575.35,491.83 C569.69,477.91 560.47,460.91 559.57,458.40 C560.73,461.70 567.72,477.32 569.93,483.08 C575.65,498.72 585.72,522.47 588.93,532.68 C591.74,541.90 601.23,578.78 605.20,593.92 C605.97,596.74 606.64,600.03 606.55,602.48 C605.62,602.87 605.04,604.26 604.96,606.58 C604.94,607.15 604.79,608.77 604.13,610.62 C603.72,606.75 595.75,576.88 590.39,554.33 C585.53,534.29 580.34,516.14 576.12,503.13 C578.34,509.73 583.32,524.68 584.33,529.67 C585.56,536.08 588.34,550.61 589.91,558.73 C592.06,568.62 600.57,597.10 603.96,609.63 C604.09,610.04 604.42,610.96 604.96,612.40 C604.96,612.40 603.41,615.46 603.41,615.46 C606.82,612.51 614.51,608.38 623.21,604.34 C646.51,594.31 661.23,587.10 674.58,580.52 C681.81,577.07 696.29,571.58 703.76,569.31 C710.35,567.32 739.83,560.45 746.69,558.88 C744.96,559.47 730.76,562.76 722.38,565.70 C714.74,568.08 697.45,573.27 695.18,573.48 C692.93,573.71 687.31,575.80 683.61,577.25 C679.80,578.78 674.63,582.09 673.50,583.95 C674.59,584.23 684.47,581.63 695.55,580.18 C707.29,578.76 711.62,577.79 722.89,574.52 C736.76,570.43 762.84,562.48 775.06,558.62 C792.83,553.67 864.26,536.52 898.76,526.93 C910.01,523.53 939.02,516.19 954.00,512.44 C961.17,510.70 977.74,508.84 981.68,508.20 C986.04,507.47 1023.69,499.31 1039.13,496.25 C1046.72,494.66 1058.49,492.18 1062.53,490.63 C1062.53,490.63 1062.81,489.53 1062.81,489.53 C1058.01,489.21 1048.58,491.08 1039.37,493.22 C1006.97,500.83 939.74,516.46 914.57,521.88 C891.90,526.72 889.63,527.79 887.12,529.20 C888.44,530.42 893.68,531.20 896.51,531.21 C903.24,531.18 913.24,529.92 924.40,528.14 C932.82,526.71 948.56,523.40 955.95,521.54 C970.60,517.57 1000.41,507.64 1014.90,502.40 C1029.55,497.11 1061.55,486.34 1069.97,483.88 C1090.81,478.01 1098.16,477.73 1100.34,477.75 C1100.17,478.54 1094.68,481.04 1091.49,482.50 C1081.09,487.09 1068.84,491.81 1068.19,492.23 C1069.66,492.45 1087.75,490.38 1095.02,490.15 C1102.69,489.93 1113.21,491.76 1114.88,491.74 C1115.22,492.46 1116.50,493.72 1117.77,494.18 C1118.85,494.58 1122.04,494.88 1124.83,495.04 C1122.98,493.41 1120.42,489.67 1118.82,485.97 C1116.85,481.30 1112.12,463.93 1110.14,456.27 C1107.18,445.29 1099.48,426.61 1092.01,404.23 C1089.41,396.18 1084.51,380.54 1082.22,372.95 C1080.62,367.32 1075.93,346.40 1075.85,346.09 C1071.85,329.79 1065.56,313.37 1057.99,289.46 C1056.05,283.70 1051.60,272.04 1049.79,268.87 C1052.21,276.76 1054.11,287.35 1054.81,294.04 C1055.70,303.75 1057.73,339.06 1058.60,355.31 C1059.42,387.51 1060.38,434.53 1060.52,449.35 C1060.72,456.07 1062.06,471.69 1062.88,472.93 C1063.04,473.18 1063.48,473.66 1064.19,474.38 C1065.83,474.02 1068.62,469.33 1069.70,466.25 C1072.09,459.22 1074.36,446.55 1074.23,440.77 C1074.14,437.69 1072.77,430.83 1072.11,428.77 C1071.37,426.55 1068.53,422.09 1067.49,420.82 C1066.00,419.01 1061.84,415.50 1059.54,414.15 C1057.49,412.98 1051.20,410.29 1047.45,409.42 C1042.16,408.21 1030.04,407.06 1021.99,407.38 C1015.66,407.65 1002.15,409.30 995.38,410.50 C980.97,413.28 953.88,420.86 942.87,424.30 C932.66,427.58 901.88,438.66 889.35,443.28 C856.97,455.80 796.23,480.68 765.29,493.54 C751.70,499.30 721.01,512.49 703.90,519.93 C691.13,525.71 661.34,539.56 650.03,545.38 C644.81,548.16 637.81,551.85 636.23,553.17 C641.51,553.18 666.70,543.53 687.84,534.38 C715.55,521.94 767.85,497.53 796.52,484.23 C827.13,470.09 889.78,440.97 921.82,425.99 C948.63,413.26 991.80,392.56 998.00,388.91 C1000.96,387.17 1020.84,374.56 1024.84,370.86 C1027.30,368.58 1029.54,366.20 1031.06,363.64 C1032.13,361.79 1032.76,359.85 1032.62,358.66 C1032.46,357.63 1031.42,356.04 1030.45,355.29 C1028.49,353.88 1021.86,352.61 1018.23,352.57 C1012.06,352.54 996.01,354.82 991.34,355.85 C986.61,356.90 968.82,362.30 962.93,364.54 C954.76,367.79 945.16,372.04 936.79,376.25 C928.19,380.84 920.88,385.12 912.39,390.54 C904.19,396.07 894.72,403.27 889.00,407.89 C883.50,412.53 872.35,422.98 868.34,427.26 C863.51,432.43 851.43,448.00 849.43,451.03 C847.65,453.75 841.69,465.93 840.44,470.80 C839.42,474.89 839.30,480.65 839.96,483.38 C840.64,485.98 843.39,490.37 845.41,492.12 C847.43,493.81 852.59,496.25 855.94,497.08 C861.96,498.52 876.11,498.24 882.11,497.25 C890.32,495.87 903.66,492.39 911.26,489.76 C918.20,487.29 933.92,480.59 939.42,477.82 C946.01,474.48 960.16,466.03 966.67,461.55 C973.65,456.64 984.80,447.59 990.86,441.89 C996.91,436.11 1006.49,425.57 1010.77,420.20 C1015.05,414.80 1022.98,403.23 1026.62,396.55 C1031.71,386.93 1034.27,381.38 1036.84,373.49 C1038.36,368.65 1039.63,363.64 1040.08,360.06 C1040.61,355.71 1040.80,349.34 1040.43,345.97 C1040.04,342.66 1038.30,336.52 1036.97,333.78 C1035.60,331.04 1031.87,326.14 1029.55,324.04 C1027.20,321.95 1021.46,318.38 1018.34,317.05 C1015.66,315.92 1008.09,313.66 1003.96,313.09 C998.37,312.33 986.53,312.25 979.59,313.28 C973.06,314.27 962.92,317.13 953.50,320.73 C947.08,323.31 930.71,332.92 926.47,335.71 C920.27,339.81 908.44,349.41 903.29,353.77 C893.38,362.51 871.66,385.46 860.33,397.64 C845.31,413.60 835.14,422.85 830.65,425.83 C827.58,427.83 820.81,431.20 817.59,432.09 C813.91,433.05 808.68,433.43 804.39,433.06 C798.21,432.47 788.10,428.83 776.17,424.13 C768.48,421.20 755.34,416.34 747.90,413.99 C741.47,412.04 727.87,408.97 720.75,407.78 C711.99,406.44 696.13,405.14 691.75,404.97 C683.96,404.67 672.39,405.06 663.45,405.99 C653.32,407.25 642.13,409.48 635.09,411.82 C631.72,412.95 625.25,415.45 621.81,417.16 C617.79,419.18 613.04,422.50 609.66,425.61 C607.05,428.05 605.38,430.31 603.99,433.82 C603.12,436.10 602.66,438.69 602.86,440.37 C603.08,441.83 604.10,444.19 604.97,445.32 C605.90,446.46 607.88,447.87 609.38,448.46 C612.15,449.49 618.76,449.31 621.80,448.54 C628.39,446.81 634.37,444.27 644.42,439.28 C649.52,436.72 655.59,433.96 658.54,432.85 C663.19,431.13 667.51,430.15 672.55,429.25 C673.16,429.14 673.77,429.03 674.38,428.93" fill="none" stroke="rgb(242, 234, 198)" stroke-width="110.20" stroke-opacity="1.00" stroke-linejoin="round"/>
<path d="M1073.55,219.83 C1072.97,221.59 1071.00,227.51 1070.84,228.24 C1070.57,229.48 1071.43,228.84 1072.23,227.54 C1073.50,225.41 1084.58,205.33 1088.97,199.33 C1092.75,194.07 1100.69,183.11 1105.49,177.12 C1112.00,169.27 1117.66,163.19 1125.21,156.36 C1131.05,151.18 1143.60,140.24 1146.93,137.56 C1152.99,132.77 1159.78,128.25 1169.56,122.35 C1190.72,109.86 1207.14,101.60 1221.49,94.70 C1247.23,83.12 1270.31,71.89 1277.63,68.93 C1283.59,66.54 1302.95,60.71 1305.13,60.35 C1308.16,59.86 1327.01,57.65 1335.01,56.76 C1340.17,56.27 1370.55,56.12 1377.77,56.74 C1381.48,57.06 1388.67,57.05 1390.57,58.14 C1391.66,58.80 1394.13,63.34 1395.15,66.13 C1395.65,67.63 1395.49,69.61 1394.69,71.31 C1393.78,73.14 1388.88,78.02 1385.57,80.56 C1380.63,84.30 1364.93,92.98 1360.25,95.33 C1344.24,103.14 1330.00,108.80 1304.95,117.28 C1290.10,122.22 1263.15,131.14 1251.06,136.10 C1236.25,142.30 1203.02,156.47 1194.34,160.70 C1187.81,163.97 1179.19,169.00 1173.24,172.87 C1167.42,176.75 1155.80,185.62 1150.07,190.30 C1144.39,195.13 1133.28,205.27 1127.97,210.47 C1122.78,215.73 1113.31,226.43 1109.11,231.75 C1105.04,236.98 1097.87,247.91 1094.22,254.27 C1090.61,260.67 1083.53,276.20 1082.35,281.39 C1081.63,284.65 1082.47,289.64 1082.78,290.63 C1083.09,290.18 1092.10,272.05 1096.51,265.13 C1101.27,257.77 1109.24,246.99 1113.98,240.91 C1123.42,229.36 1143.96,207.29 1152.18,199.24 C1162.95,188.96 1185.61,169.63 1197.84,160.37 C1208.85,152.30 1231.49,137.65 1246.86,129.09 C1257.45,123.45 1276.52,114.52 1303.77,103.10 C1310.90,99.95 1322.81,94.42 1324.72,93.46 C1324.16,92.68 1322.61,92.38 1319.97,92.70 C1315.84,93.21 1302.45,97.43 1293.66,101.24 C1277.11,108.89 1244.14,126.23 1237.48,130.28 C1233.98,132.42 1194.02,160.67 1189.32,164.47 C1183.36,169.42 1177.63,174.69 1171.10,181.82 C1158.05,196.25 1146.83,211.53 1132.06,228.97 C1126.89,235.06 1116.61,247.90 1113.77,253.49 C1111.88,257.41 1110.82,261.19 1111.36,263.57 C1111.76,265.12 1121.59,279.90 1124.86,286.53 C1125.87,288.58 1127.17,291.61 1127.74,292.78 C1128.69,294.64 1130.66,296.56 1132.06,296.88 C1135.12,297.49 1149.67,296.89 1151.87,296.20 C1154.23,295.39 1156.37,293.71 1156.99,292.05 C1157.36,290.69 1158.34,287.69 1159.41,286.23 C1161.96,282.90 1170.32,284.47 1170.84,284.97 C1170.42,286.10 1165.81,289.28 1162.63,290.88 C1160.99,291.65 1158.99,291.39 1157.59,290.24 C1156.53,289.31 1154.07,283.32 1153.24,279.75 C1151.95,274.07 1151.24,261.73 1151.82,252.94 C1152.09,249.26 1152.90,245.29 1154.02,242.23 C1154.85,240.05 1157.59,235.66 1160.02,233.86 C1163.02,231.68 1177.41,227.32 1183.18,227.03 C1186.97,226.87 1193.41,228.33 1196.61,229.83 C1198.14,230.60 1200.47,232.65 1200.89,233.88 C1201.27,235.15 1200.24,237.58 1199.14,238.50 C1195.44,241.39 1185.40,244.35 1174.85,246.51 C1173.12,246.86 1168.25,247.90 1168.21,247.90 C1166.33,248.25 1164.49,249.38 1163.46,250.82 C1162.61,252.06 1161.48,266.45 1160.09,277.82 C1159.54,281.96 1158.35,291.75 1158.20,292.73 C1157.91,294.72 1158.15,295.45 1159.16,296.34 C1161.64,296.16 1163.07,295.87 1164.55,295.16 C1167.60,293.69 1170.08,291.50 1170.49,290.77 C1167.43,292.83 1162.27,297.94 1161.26,298.81 C1159.87,300.02 1155.32,303.54 1155.03,305.02 C1155.03,305.02 1155.80,305.80 1155.80,305.80 C1158.59,305.58 1161.50,304.10 1164.88,301.54 C1166.88,299.98 1168.25,298.62 1168.56,297.81 C1168.81,296.97 1164.30,290.71 1163.50,287.82 C1162.01,282.23 1162.12,266.57 1163.21,260.49 C1164.68,252.45 1168.06,243.95 1169.49,242.39 C1170.25,241.61 1171.96,241.53 1172.91,242.10 C1173.99,242.78 1181.51,249.95 1182.46,250.75 C1184.77,252.68 1190.09,255.78 1193.41,256.44 C1194.87,256.72 1205.99,258.23 1208.62,258.80 C1212.69,259.72 1229.26,267.14 1233.75,268.25 C1237.00,269.03 1245.65,269.92 1249.07,269.82 C1253.00,269.67 1259.64,268.23 1262.75,267.02 C1265.48,265.94 1268.55,264.15 1270.68,261.47 C1273.45,257.99 1276.69,255.46 1278.53,254.17 C1279.22,253.55 1279.71,252.31 1279.51,251.47 C1278.92,249.38 1276.14,245.10 1274.37,243.03 C1270.35,238.38 1259.89,229.65 1254.08,226.09 C1248.55,222.72 1236.79,217.07 1231.08,215.29 C1227.44,214.17 1221.23,212.85 1217.03,212.23 C1212.67,211.59 1206.90,210.24 1205.32,208.76 C1204.45,207.89 1203.78,206.18 1203.55,204.46 C1203.25,201.58 1205.13,196.18 1206.89,193.79 C1208.35,191.89 1211.98,188.11 1213.26,187.08 C1214.82,185.83 1219.47,183.01 1223.28,181.96 C1226.28,181.15 1246.75,177.97 1251.24,177.82 C1252.88,177.78 1260.99,177.85 1261.98,178.58 C1262.25,178.78 1262.48,179.27 1262.67,180.03 C1261.25,182.78 1258.32,185.62 1256.32,187.32 C1253.61,189.60 1222.94,212.60 1219.08,216.74 C1216.56,219.48 1213.96,223.42 1213.22,225.41 C1213.08,225.83 1212.50,228.62 1212.53,229.41 C1212.72,231.68 1214.04,235.07 1215.50,236.23 C1216.84,237.25 1219.82,238.18 1221.21,238.17 C1223.99,238.05 1228.85,236.66 1231.69,235.21 C1234.33,233.84 1239.52,230.22 1242.12,228.00 C1245.13,225.40 1247.99,222.34 1249.80,219.61 C1252.21,215.86 1254.11,211.09 1254.41,207.44 C1254.50,205.87 1254.71,202.35 1254.89,201.31 C1255.08,200.18 1255.73,198.05 1256.20,196.69" fill="none" stroke="rgb(242, 234, 198)" stroke-width="110.20" stroke-opacity="1.00" stroke-linejoin="round"/>
<path d="M1287.60,151.24 C1286.66,150.70 1282.45,165.64 1281.49,170.91 C1280.84,174.57 1280.45,179.63 1280.60,182.68 C1280.78,185.53 1283.25,190.45 1285.03,191.46 C1286.36,192.17 1293.88,194.71 1295.67,195.39 C1299.25,196.76 1303.93,198.85 1306.54,198.83 C1307.81,198.81 1326.29,197.08 1333.25,197.05 C1343.96,197.09 1349.29,196.72 1359.34,194.80 C1361.47,194.40 1364.52,193.91 1364.78,193.85 C1366.96,193.36 1368.50,192.62 1370.40,191.17 C1371.62,190.24 1374.11,188.24 1375.08,187.25 C1376.12,186.11 1376.40,183.92 1375.82,182.00 C1375.15,179.97 1371.29,175.22 1369.36,173.54 C1366.89,171.40 1361.41,167.95 1359.12,166.87 C1356.36,165.58 1349.34,163.23 1345.62,162.49 C1337.27,160.87 1327.28,160.58 1315.52,161.26 C1312.09,161.45 1305.01,161.83 1302.15,161.84 C1300.81,161.85 1300.26,161.63 1299.76,161.02 C1300.27,158.92 1302.23,155.10 1303.88,152.68 C1307.67,147.13 1317.23,138.18 1323.23,133.63 C1328.46,129.70 1336.85,124.85 1348.73,118.48 C1352.46,116.45 1360.50,109.75 1368.07,104.46 C1370.82,102.53 1376.44,97.34 1376.47,97.39 C1376.91,98.16 1375.69,100.79 1374.14,102.22 C1371.60,104.62 1367.80,108.02 1366.21,108.96 C1364.65,109.88 1361.71,111.60 1360.33,112.40" fill="none" stroke="rgb(242, 234, 198)" stroke-width="110.20" stroke-opacity="1.00" stroke-linejoin="round"/>
<path d="M1079.34,197.52 C1079.20,197.92 1079.87,199.66 1080.40,200.98 C1080.58,201.54 1083.66,215.27 1086.79,224.66 C1087.31,226.19 1088.12,228.81 1088.43,229.82 C1087.20,225.07 1081.76,206.20 1080.51,203.10 C1078.93,199.24 1075.73,194.36 1075.26,193.85 C1075.26,193.85 1078.13,220.95 1078.13,220.95 C1074.79,210.17 1072.00,202.67 1070.25,200.99 C1071.56,206.61 1078.05,220.92 1080.86,226.96 C1084.73,235.32 1089.45,247.37 1091.95,256.01 C1094.94,266.31 1099.99,279.11 1100.59,280.63 C1102.46,285.42 1107.78,302.35 1109.94,303.87 C1110.88,304.47 1123.73,307.35 1131.13,307.67 C1135.85,307.82 1140.71,307.81 1143.46,307.18 C1144.87,306.85 1152.69,304.60 1155.68,303.48 C1158.76,302.30 1162.58,299.89 1163.34,298.06 C1164.61,294.69 1162.76,281.32 1161.75,273.10 C1161.65,272.16 1161.54,271.23 1161.43,270.29 C1161.43,270.29 1165.27,286.58 1165.27,286.58" fill="none" stroke="rgb(225, 189, 177)" stroke-width="110.20" stroke-opacity="1.00" stroke-linejoin="round"/>
<path d="M1140.50,242.98" fill="none" stroke="rgb(225, 189, 177)" stroke-width="110.20" stroke-opacity="1.00" stroke-linejoin="round"/>
<path d="M1110.74,238.02 C1110.74,238.02 1107.93,238.19 1107.93,238.19 C1107.08,234.85 1105.30,217.19 1104.43,209.00 C1103.40,199.18 1103.20,187.58 1104.41,181.68 C1105.46,176.76 1112.93,161.47 1115.50,157.85 C1118.71,153.37 1128.72,143.85 1137.06,136.72 C1144.85,130.21 1151.16,125.15 1157.16,121.69 C1170.77,114.10 1199.23,98.47 1210.31,93.58 C1224.66,87.53 1251.46,77.86 1266.52,73.30 C1274.79,70.92 1291.10,66.30 1299.12,64.07 C1308.57,61.48 1316.28,60.37 1327.29,59.00 C1338.25,57.74 1355.03,56.58 1359.85,56.53 C1369.56,56.46 1393.48,58.98 1397.25,60.06 C1397.66,60.57 1397.09,61.85 1395.28,64.19 C1391.68,68.84 1382.08,77.66 1374.33,84.34 C1368.13,89.42 1356.03,98.99 1352.04,101.21 C1350.64,101.98 1332.55,111.33 1325.44,114.97 C1316.63,119.40 1287.79,130.79 1272.67,136.77 C1266.00,139.49 1249.48,146.31 1246.91,147.60 C1243.39,149.38 1222.72,160.69 1220.59,161.98 C1216.60,164.41 1213.09,167.43 1211.11,169.93 C1209.92,171.43 1209.55,172.51 1209.64,173.69 C1210.37,174.42 1211.92,174.48 1214.05,173.69 C1216.98,172.59 1273.87,134.13 1287.29,125.82 C1293.57,122.12 1304.74,115.93 1314.12,111.34 C1321.32,108.00 1338.53,100.37 1341.20,98.83 C1346.15,95.91 1358.27,90.58 1365.55,88.72 C1368.24,88.06 1373.53,87.96 1375.16,88.79 C1376.08,89.31 1377.17,91.02 1376.97,91.99 C1376.39,94.38 1371.98,98.76 1369.41,100.63 C1362.47,105.66 1352.47,111.55 1344.15,115.13 C1341.93,116.08 1332.75,119.68 1331.23,120.31 C1325.42,122.70 1322.17,124.71 1322.21,124.70 C1324.94,123.26 1366.09,97.74 1373.24,93.89 C1375.94,92.46 1382.24,89.12 1382.74,88.84 C1387.37,86.21 1390.23,83.94 1390.08,82.64 C1383.00,85.19 1374.99,87.22 1364.39,89.41 C1348.70,92.43 1320.32,98.05 1306.20,101.69 C1286.73,107.03 1263.05,114.59 1253.07,119.12 C1246.43,122.15 1232.60,129.91 1227.15,133.44 C1215.83,140.81 1201.18,153.09 1194.72,159.92 C1192.26,162.57 1188.55,167.86 1188.43,169.56 C1188.41,169.95 1188.66,170.41 1189.19,170.94 C1191.41,170.46 1192.58,170.04 1193.99,169.08 C1198.11,166.27 1210.53,154.93 1216.43,149.41 C1222.63,143.40 1236.54,129.81 1238.72,127.47 C1239.94,126.15 1240.58,124.91 1241.25,122.87 C1239.55,122.14 1238.27,121.92 1236.64,122.29 C1231.48,123.47 1219.43,129.20 1212.31,133.62 C1204.86,138.39 1191.73,147.67 1187.91,150.67 C1180.84,156.32 1170.85,165.41 1166.67,170.04 C1161.86,175.40 1154.65,186.24 1152.20,191.32 C1151.73,192.30 1143.78,209.41 1140.51,215.39 C1133.63,227.52 1130.56,233.46 1128.54,239.60 C1127.31,243.41 1124.36,264.87 1124.09,269.34 C1124.01,270.95 1125.13,274.45 1126.03,275.34 C1126.40,275.69 1127.11,275.90 1128.17,275.96 C1130.63,273.97 1133.71,269.21 1135.56,266.38 C1139.46,260.47 1146.97,249.81 1151.44,244.86 C1155.57,240.30 1165.94,230.07 1170.07,227.37 C1171.70,226.36 1174.74,225.54 1176.32,225.82 C1177.73,226.11 1179.04,228.58 1179.23,230.61 C1179.25,230.88 1178.79,240.86 1179.08,243.47 C1179.20,244.45 1180.67,246.97 1181.80,248.41 C1182.73,249.54 1203.58,257.43 1205.46,258.17 C1212.02,260.75 1224.77,263.91 1232.43,264.39 C1236.66,264.64 1256.08,264.37 1260.20,263.17 C1262.48,262.48 1266.49,259.96 1267.74,258.52 C1269.62,256.29 1271.22,251.77 1271.15,249.15 C1271.03,246.41 1269.76,240.96 1268.39,237.72 C1265.81,231.69 1257.73,220.40 1252.66,215.71 C1249.72,213.01 1244.40,209.01 1241.04,206.97 C1237.93,205.11 1231.00,202.05 1228.05,201.13 C1225.15,200.24 1218.68,199.12 1215.85,199.08 C1212.40,199.07 1206.17,200.61 1203.50,202.12 C1201.94,203.04 1199.32,205.50 1198.37,206.98 C1197.47,208.44 1196.31,212.09 1196.28,213.75 C1196.27,217.13 1198.59,221.76 1199.99,223.12 C1201.64,224.65 1207.54,226.43 1209.93,226.20 C1214.63,225.70 1225.59,221.17 1234.73,216.00 C1247.73,208.31 1277.61,191.22 1287.93,186.58 C1289.46,185.90 1292.68,184.65 1293.49,184.31 C1294.94,183.74 1297.15,183.47 1298.48,183.82 C1300.21,184.31 1304.30,190.58 1306.43,192.25 C1308.61,193.91 1315.38,196.07 1319.30,196.70 C1324.58,197.52 1337.67,197.50 1343.95,196.90 C1347.85,196.51 1354.62,194.97 1356.15,194.23 C1357.91,193.33 1360.29,189.31 1361.27,186.27 C1362.01,183.81 1361.20,180.13 1359.82,177.54 C1358.37,174.95 1354.40,171.59 1349.90,168.93 C1345.04,166.12 1331.37,161.96 1325.72,160.97 C1318.71,159.77 1304.68,159.54 1298.90,160.63 C1296.19,161.22 1288.32,162.96 1288.00,163.85 C1287.79,164.49 1289.00,166.42 1290.08,167.77" fill="none" stroke="rgb(225, 189, 177)" stroke-width="110.20" stroke-opacity="1.00" stroke-linejoin="round"/>
<path d="M1382.64,196.28 C1383.91,195.09 1385.61,192.08 1385.73,191.62 C1386.24,189.61 1383.50,183.87 1383.29,183.48 C1383.05,183.05 1382.56,182.22 1381.82,180.99" fill="none" stroke="rgb(225, 189, 177)" stroke-width="110.20" stroke-opacity="1.00" stroke-linejoin="round"/>
<path d="M182.64,321.49 C180.68,321.52 176.15,320.60 174.09,320.60 C166.20,320.54 148.39,320.87 140.96,321.79 C134.79,322.57 116.17,326.09 112.67,326.91 C106.95,328.24 86.15,327.92 81.33,328.39 C79.88,328.53 62.12,331.55 59.41,331.76 C58.03,331.87 55.58,331.43 52.98,331.94 C57.93,330.93 71.74,328.84 77.25,327.88 C85.98,326.29 122.70,316.53 137.95,312.44 C150.54,309.46 177.13,304.96 189.06,302.54 C181.52,302.60 166.98,305.00 162.67,305.90 C151.09,308.34 115.57,319.08 101.17,323.52 C98.43,324.32 82.29,327.98 75.21,329.58 C69.01,331.11 55.13,336.01 54.65,335.32 C54.65,335.32 57.27,332.24 57.27,332.24 C57.27,332.24 57.14,330.89 57.14,330.89 C57.14,330.89 54.26,330.18 54.26,330.18 C54.07,331.96 57.68,337.64 60.39,340.21 C61.77,341.48 67.01,344.89 69.23,345.88 C72.22,347.18 111.63,357.51 118.94,358.62 C125.19,359.54 137.24,359.33 144.90,358.26 C146.23,358.08 167.19,354.66 175.51,353.26 C185.81,351.30 195.18,349.07 202.34,346.69 C223.27,339.43 229.57,336.59 231.34,335.67 C221.00,337.02 208.09,339.40 203.87,340.01 C194.67,341.26 182.01,341.99 174.38,341.80 C167.73,341.56 153.45,340.84 144.23,340.95 C128.96,341.57 87.33,342.53 84.92,343.66 C84.59,343.82 84.02,344.28 83.21,345.04 C83.05,347.03 86.06,351.67 87.71,353.23 C89.64,354.99 95.51,359.10 99.15,360.74 C105.32,363.49 117.69,367.02 122.84,367.64 C129.28,368.40 139.03,367.82 149.54,366.41 C157.54,365.23 173.49,362.84 181.43,361.63 C195.05,359.36 212.59,353.57 219.28,350.41 C214.81,350.38 197.68,350.74 189.45,350.93 C186.71,350.94 146.40,348.16 131.18,347.40 C121.89,347.13 106.91,347.13 100.04,347.19 C94.20,347.33 83.38,348.39 73.99,350.71 C70.39,351.63 62.25,353.73 60.81,353.44 C60.43,353.36 60.08,353.02 59.78,352.41 C61.82,349.62 72.37,343.34 78.84,340.69 C91.08,335.75 110.22,331.66 138.32,326.55 C160.45,322.34 180.58,316.75 193.18,313.22 C200.15,311.15 215.14,306.71 223.17,304.35 C233.97,301.34 246.05,298.55 252.41,298.00 C256.51,297.66 264.64,297.69 268.54,297.74 C272.10,297.77 275.54,299.11 275.48,299.38 C274.64,299.69 260.61,300.94 249.81,302.79 C234.36,305.53 215.01,308.91 189.90,312.33 C175.56,314.35 168.32,315.11 166.39,314.53 C169.27,311.93 173.16,309.59 176.60,308.10 C183.26,305.26 197.05,299.78 203.86,298.48 C210.01,297.35 220.55,295.96 230.43,295.88 C245.90,295.80 270.20,295.21 272.69,295.23 C276.60,295.30 292.08,298.92 298.65,300.53 C301.53,301.26 328.30,315.17 344.14,324.79 C349.54,327.93 364.93,332.10 371.77,333.35 C372.18,333.42 380.42,334.78 381.49,335.08 C384.20,335.86 392.21,339.23 396.20,340.93 C399.22,342.19 413.29,345.69 422.57,349.34 C425.90,350.63 443.81,357.46 445.01,358.81 C446.25,360.29 446.97,366.51 447.98,370.26 C449.56,376.05 455.45,388.99 457.42,394.74 C460.07,402.82 463.12,412.15 463.53,413.40 C460.16,398.64 454.63,374.92 453.20,370.41 C451.87,366.22 448.39,357.51 447.73,355.63 C445.62,349.55 443.38,335.63 444.27,335.51 C446.26,338.89 447.90,346.81 450.11,358.62 C452.60,370.74 458.39,404.10 460.47,413.04 C463.43,425.02 464.79,432.31 464.22,437.33 C463.88,439.95 461.88,443.85 459.66,446.13 C458.41,447.36 451.85,451.67 450.17,452.40 C445.35,454.44 427.73,456.49 426.36,457.06 C427.87,458.35 433.52,458.16 435.99,457.54 C440.26,456.42 448.65,452.04 452.63,448.57 C454.55,446.88 459.96,441.05 462.51,437.31 C464.00,435.10 468.37,427.46 470.05,423.98 C471.97,419.92 472.93,415.87 473.55,410.83 C473.55,412.74 471.17,417.20 469.75,418.68 C466.10,422.39 453.90,428.96 447.67,431.10 C444.20,432.27 436.21,433.98 432.63,434.32 C427.07,434.83 406.71,433.80 402.86,434.83 C399.94,435.66 396.33,439.01 395.10,441.27 C393.51,444.14 392.86,445.12 392.00,445.55 C391.65,445.71 382.92,448.44 380.19,449.60 C371.56,453.32 348.04,468.29 342.78,470.31 C339.61,471.51 334.45,472.67 331.20,472.75 C328.22,472.79 318.98,472.00 317.67,471.77 C314.78,471.25 309.26,468.92 307.50,467.85 C305.32,466.50 301.51,462.95 300.21,461.04 C299.25,459.61 297.07,454.89 296.62,452.87 C295.74,448.77 295.61,445.30 295.72,442.84 C297.77,441.75 311.29,435.56 317.59,432.49 C326.37,428.32 334.92,425.33 343.98,423.06 C351.06,421.41 365.26,418.19 372.39,416.61 C379.11,415.06 391.59,410.38 397.06,407.10 C399.19,405.80 405.60,401.56 407.14,400.16 C407.84,399.53 408.43,398.50 409.27,396.74 C408.74,395.66 407.41,395.09 404.80,394.99 C401.68,394.88 383.62,400.18 380.01,401.76 C377.17,403.00 360.41,411.08 355.48,414.33 C346.96,420.13 339.43,426.00 336.50,430.65 C336.22,431.11 334.83,434.11 334.71,434.92 C334.42,437.21 335.31,440.19 336.85,442.08 C338.06,443.50 343.30,446.20 346.35,446.76 C349.45,447.31 355.50,446.88 358.82,446.13 C363.97,444.92 376.39,439.37 383.48,435.40 C395.23,428.70 413.77,415.29 418.60,411.37 C422.15,408.44 427.46,403.77 429.66,400.48 C430.57,399.04 430.85,396.74 430.23,395.66 C428.99,393.68 424.91,391.03 422.44,389.86 C415.17,386.47 404.89,383.53 398.58,382.60 C394.15,381.96 377.68,380.95 370.01,381.27 C364.10,381.52 350.59,383.28 344.59,384.62 C338.69,385.97 327.79,389.41 318.44,392.77 C309.82,396.11 284.79,408.51 280.43,411.26 C276.74,413.64 275.55,415.20 275.76,415.98 C278.11,416.35 282.99,415.29 284.84,414.61 C289.51,412.85 299.31,407.06 307.49,401.61 C319.71,393.45 352.19,372.97 352.62,372.59 C352.88,372.35 353.30,371.87 353.86,371.14 C353.24,370.37 348.39,371.84 345.11,373.35 C334.36,378.37 274.78,414.78 267.64,418.28 C261.58,421.24 246.69,427.05 239.36,429.74 C234.12,431.60 219.97,436.16 211.73,438.98 C208.11,440.23 203.91,440.53 202.20,440.17 C200.03,439.67 191.00,435.18 189.78,434.47 C186.98,432.82 182.57,428.70 181.24,426.81 C179.40,424.16 177.08,418.08 176.60,415.12 C176.18,412.33 176.70,405.49 177.19,403.06 C177.73,400.46 180.35,394.57 181.54,392.52 C184.66,387.16 194.04,376.62 198.69,372.31 C203.58,367.80 214.46,359.23 221.03,355.11 C227.11,351.31 239.62,344.84 246.48,341.98 C268.89,332.96 273.08,332.84 275.14,333.13 C272.16,335.61 255.51,346.20 250.15,350.18 C246.48,352.92 233.70,363.54 230.51,367.67 C229.57,368.90 224.89,375.71 224.30,376.91 C223.60,378.39 221.86,386.01 222.56,388.71 C222.99,390.22 224.43,392.54 225.61,393.63 C226.88,394.75 229.60,396.06 231.49,396.43 C234.90,397.05 241.95,396.12 245.11,395.25 C250.08,393.84 262.30,388.14 269.15,384.16 C275.15,380.66 287.76,372.21 292.91,368.25 C298.14,364.21 306.93,356.48 309.37,353.58 C312.11,350.26 314.83,345.02 314.19,343.66 C313.32,342.00 311.13,340.19 309.42,339.77 C305.97,339.01 299.30,339.17 295.88,339.76 C289.27,340.96 276.82,345.42 270.52,348.90 C268.60,349.97 264.22,353.03 262.81,354.34 C261.46,355.61 257.09,360.78 256.14,363.71 C255.69,365.22 255.65,368.45 256.06,369.98 C256.57,371.69 258.26,374.06 260.01,375.61 C262.60,377.83 266.84,379.42 268.35,379.73 C270.58,380.16 278.61,380.04 281.47,379.61 C287.94,378.62 302.19,372.93 309.01,369.31 C311.57,367.91 316.79,364.89 317.22,364.33 C317.47,363.98 317.79,363.20 318.18,361.98" fill="none" stroke="rgb(225, 189, 177)" stroke-width="110.20" stroke-opacity="1.00" stroke-linejoin="round"/>
<path d="M442.15,274.38 Q715.70,188.43 1021.49,148.76" fill="none" stroke="rgb(0, 0, 0)" stroke-width="20.00" stroke-opacity="1.00" stroke-linejoin="round"/>
<path d="M1019.83,149.59 Q1104.13,320.66 1153.72,520.66" fill="none" stroke="rgb(0, 0, 0)" stroke-width="20.00" stroke-opacity="1.00" stroke-linejoin="round"/>
<path d="M442.15,273.55 Q517.36,452.89 581.82,645.45" fill="none" stroke="rgb(0, 0, 0)" stroke-width="20.00" stroke-opacity="1.00" stroke-linejoin="round"/>
<path d="M584.30,644.63 Q848.76,574.38 1152.07,519.01" fill="none" stroke="rgb(0, 0, 0)" stroke-width="20.00" stroke-opacity="1.00" stroke-linejoin="round"/>
<path d="M482.64,368.60 Q828.10,461.98 829.75,461.98" fill="none" stroke="rgb(0, 0, 0)" stroke-width="20.00" stroke-opacity="1.00" stroke-linejoin="round"/>
<path d="M829.75,461.98 Q1056.20,230.58 1056.20,228.93" fill="none" stroke="rgb(0, 0, 0)" stroke-width="20.00" stroke-opacity="1.00" stroke-linejoin="round"/>
<path d="M651.24,342.98 C650.78,342.25 650.50,341.76 650.41,341.50 C649.74,339.40 653.11,323.38 655.20,318.24 C656.58,314.93 659.90,308.95 662.05,306.32 C664.09,303.86 669.23,299.58 671.35,298.52 C673.65,297.42 677.94,296.76 680.99,296.83 C683.25,296.91 688.33,298.24 691.68,299.51 C696.75,301.48 707.65,310.20 712.09,315.15 C716.64,320.26 724.41,333.82 724.55,334.05 C724.73,334.34 725.06,334.82 725.54,335.49" fill="none" stroke="rgb(0, 0, 0)" stroke-width="20.00" stroke-opacity="1.00" stroke-linejoin="round"/>
<path d="M817.36,312.87 C817.29,310.51 818.58,304.16 819.58,301.01 C821.66,294.51 827.33,280.82 830.13,275.73 C831.31,273.61 834.77,268.29 836.85,265.75 C838.99,263.17 843.17,259.61 845.42,258.50 C847.41,257.55 852.69,256.26 854.00,256.18 C856.02,256.08 862.75,257.23 864.90,257.93 C867.31,258.73 872.54,261.63 874.77,263.29 C877.51,265.36 880.70,268.49 884.00,272.38 C885.96,274.71 888.27,278.69 890.88,283.75 C893.51,288.92 893.85,289.53 894.18,290.05" fill="none" stroke="rgb(0, 0, 0)" stroke-width="20.00" stroke-opacity="1.00" stroke-linejoin="round"/>
<path d="M1047.11,205.72 C1047.90,202.10 1054.29,189.56 1058.65,182.37 C1060.89,178.67 1070.09,164.85 1075.79,156.99 C1080.44,150.79 1091.45,137.62 1095.02,133.66 C1101.76,126.45 1108.62,119.66 1114.36,114.51 C1119.52,109.95 1129.84,102.18 1137.42,97.03 C1147.97,90.20 1172.10,77.03 1184.15,71.11 C1196.97,65.19 1219.61,56.45 1236.51,51.03 C1246.69,48.00 1284.98,39.32 1296.62,37.37 C1310.14,35.43 1342.25,32.65 1354.12,32.44 C1361.58,32.42 1377.09,32.93 1383.43,33.63 C1391.06,34.49 1401.96,36.32 1407.82,38.29 C1411.49,39.55 1416.78,42.57 1418.75,44.39 C1420.72,46.28 1423.27,50.91 1423.98,53.61 C1424.62,56.18 1424.88,62.12 1424.59,65.21 C1424.29,68.17 1422.18,75.68 1421.47,77.40 C1419.26,82.69 1410.62,96.30 1405.79,102.08 C1400.61,108.17 1390.94,117.94 1385.82,121.94 C1380.70,125.89 1365.77,134.40 1360.83,136.31 C1346.21,141.91 1329.75,144.27 1325.89,144.47 C1323.78,144.57 1322.46,144.42 1321.50,144.08" fill="none" stroke="rgb(0, 0, 0)" stroke-width="20.00" stroke-opacity="1.00" stroke-linejoin="round"/>
<path d="M1358.68,141.32 C1363.25,142.92 1376.23,151.35 1381.05,155.17 C1386.23,159.31 1394.19,168.63 1397.05,173.74 C1398.72,176.76 1401.00,182.44 1401.53,185.51 C1402.08,188.95 1401.16,195.28 1399.59,198.27 C1398.09,201.04 1393.73,205.88 1391.03,208.19 C1386.45,212.06 1374.74,218.52 1367.93,220.85 C1361.31,223.09 1346.38,226.33 1338.92,227.14 C1331.90,227.88 1314.43,228.01 1311.59,227.77 C1306.57,227.33 1290.49,224.34 1285.07,222.47 C1278.95,220.33 1267.40,214.88 1266.32,212.60 C1266.32,212.60 1266.80,212.40 1266.80,212.40" fill="none" stroke="rgb(0, 0, 0)" stroke-width="20.00" stroke-opacity="1.00" stroke-linejoin="round"/>
<path d="M1175.21,275.21 C1179.65,277.82 1192.07,282.92 1197.92,284.68 C1204.08,286.52 1219.89,289.68 1226.48,290.39 C1230.39,290.81 1250.99,291.52 1254.51,291.38 C1260.36,291.14 1274.29,289.06 1279.31,287.23 C1282.45,286.06 1288.68,282.98 1291.28,281.12 C1293.81,279.27 1298.42,274.32 1299.75,272.11 C1300.94,270.10 1302.87,264.82 1303.22,261.82 C1303.48,259.36 1303.60,251.71 1303.17,248.68 C1302.81,246.21 1301.26,239.77 1299.74,236.30 C1299.11,234.87 1294.86,226.31 1294.88,226.35" fill="none" stroke="rgb(0, 0, 0)" stroke-width="20.00" stroke-opacity="1.00" stroke-linejoin="round"/>
<path d="M1095.04,314.05 C1096.20,315.32 1102.97,319.55 1105.16,320.81 C1108.78,322.87 1113.46,324.61 1118.03,325.75 C1125.63,327.62 1140.64,329.82 1145.10,329.73 C1147.58,329.66 1156.13,328.49 1159.78,327.41 C1160.85,327.08 1169.50,323.77 1171.61,322.73 C1174.59,321.26 1179.56,317.74 1181.63,315.84 C1183.68,313.93 1187.93,309.36 1189.02,306.76 C1189.63,305.28 1191.24,297.75 1191.57,294.48 C1191.75,292.61 1191.73,288.60 1191.74,288.43" fill="none" stroke="rgb(0, 0, 0)" stroke-width="20.00" stroke-opacity="1.00" stroke-linejoin="round"/>
<path d="M457.02,319.83 C456.49,319.62 454.43,319.22 452.56,319.05 C443.58,318.48 436.61,316.81 425.98,313.54 C412.94,309.35 382.04,298.00 368.21,292.49 C354.99,287.10 329.15,276.81 314.59,271.53 C306.82,268.82 292.30,263.83 285.55,261.53 C278.13,259.04 267.06,256.86 259.83,256.82 C254.42,256.81 243.81,258.36 235.49,260.35 C205.28,268.46 144.92,285.15 114.76,293.73 C83.33,303.26 42.14,315.92 39.33,317.07 C36.45,318.27 31.95,321.87 31.02,323.75 C30.04,325.89 30.56,331.01 31.56,333.66 C32.77,336.76 35.55,341.72 37.97,345.05 C42.54,351.26 52.90,360.87 60.91,366.41 C68.69,371.72 79.68,377.19 85.70,379.55 C92.40,382.16 106.48,385.95 114.97,387.48 C122.75,388.84 137.47,389.89 145.46,389.98 C152.81,390.06 167.33,388.35 171.82,387.34 C174.91,386.62 180.80,384.64 185.06,382.91 C190.32,380.69 193.47,379.05 194.88,377.87 C194.97,377.79 195.02,377.74 195.04,377.69" fill="none" stroke="rgb(0, 0, 0)" stroke-width="20.00" stroke-opacity="1.00" stroke-linejoin="round"/>
<path d="M157.85,390.08 C156.94,391.16 155.82,394.23 154.26,398.02 C152.82,401.59 151.58,407.72 151.74,411.08 C151.92,414.26 153.64,421.07 155.08,424.52 C156.52,427.93 160.36,434.50 162.68,437.50 C165.08,440.56 170.55,445.79 173.74,448.03 C179.68,452.14 191.72,456.80 196.94,458.07 C201.31,459.11 214.13,460.46 220.66,459.92 C230.64,459.04 243.13,456.96 251.37,454.74 C263.26,451.51 281.35,444.04 289.83,439.69 C295.49,436.71 296.57,436.02 298.59,434.56 C298.37,434.78 298.23,434.95 298.15,435.07 C298.07,435.19 297.95,435.44 297.78,435.80" fill="none" stroke="rgb(0, 0, 0)" stroke-width="20.00" stroke-opacity="1.00" stroke-linejoin="round"/>
<path d="M274.38,450.41 C274.23,451.16 273.81,451.83 273.80,451.95 C273.69,454.89 275.47,462.74 276.54,465.71 C278.67,471.56 285.80,482.22 289.82,485.81 C294.22,489.70 305.10,495.62 311.24,497.27 C317.19,498.84 330.35,499.60 336.28,499.09 C341.85,498.58 353.49,495.20 359.28,492.77 C362.97,491.20 376.99,482.42 381.21,478.87 C385.88,474.92 396.03,463.15 398.47,458.97 C399.06,457.96 400.75,454.49 401.15,453.73 C401.28,453.48 401.45,453.20 401.65,452.89" fill="none" stroke="rgb(0, 0, 0)" stroke-width="20.00" stroke-opacity="1.00" stroke-linejoin="round"/>
<path d="M401.65,464.46 C401.65,464.46 401.33,463.70 401.33,463.70 C402.01,465.88 402.81,467.29 404.44,468.72 C407.20,471.15 412.58,474.96 414.72,475.96 C416.95,476.99 423.84,478.83 426.83,479.36 C430.47,479.98 435.81,480.21 439.27,479.89 C442.47,479.56 449.44,477.79 452.48,476.63 C458.73,474.21 471.12,466.51 475.53,462.27 C479.65,458.27 486.62,447.56 489.14,442.07 C490.51,439.04 493.28,430.97 493.92,428.81 C494.93,425.33 495.64,419.87 495.65,416.69 C495.63,412.96 494.97,408.69 494.33,406.22 C494.29,406.06 494.25,405.94 494.21,405.85" fill="none" stroke="rgb(0, 0, 0)" stroke-width="20.00" stroke-opacity="1.00" stroke-linejoin="round"/>
</g>
</svg>
