<?xml version="1.0" encoding="UTF-8" standalone="no"?>
<!DOCTYPE svg PUBLIC "-//W3C//DTD SVG 1.1//EN" "http://www.w3.org/Graphics/SVG/1.1/DTD/svg11.dtd">
<svg width="4358.00" height="3008.00" viewBox="0.00 0.00 4358.00 3008.00" xmlns="http://www.w3.org/2000/svg" xmlns:xlink="http://www.w3.org/1999/xlink">
<g stroke-linecap="round" transform="translate(-752.00, -496.00)" id="Layer_8_Copy">
<path d="M2522.72,964.09 C2522.72,964.09 2522.72,961.46 2522.72,961.46 C2522.68,974.43 2522.51,1004.58 2522.39,1021.76 C2522.42,1038.02 2522.77,1064.99 2522.90,1076.16 C2522.93,1083.04 2525.82,1136.38 2525.97,1141.09 C2526.00,1142.17 2526.04,1145.78 2526.05,1146.88 C2526.05,1146.88 2525.66,1146.02 2525.66,1146.02" fill="none" stroke="rgb(255, 255, 255)" stroke-width="16.00" stroke-opacity="1.00" stroke-linejoin="round"/>
<path d="M2537.72,958.63 C2536.35,960.45 2535.37,971.98 2534.84,978.12 C2533.56,995.08 2531.34,1028.20 2530.68,1043.59 C2530.33,1059.11 2530.64,1091.82 2531.23,1108.87 C2531.88,1124.00 2532.86,1144.57 2533.18,1150.02 C2533.60,1156.15 2533.65,1157.09 2533.63,1157.38 C2533.63,1157.38 2533.63,1156.93 2533.63,1156.93" fill="none" stroke="rgb(255, 255, 255)" stroke-width="16.00" stroke-opacity="1.00" stroke-linejoin="round"/>
<path d="M2526.81,1145.45 C2526.81,1145.45 2525.45,1145.45 2525.45,1145.45 C2525.94,1148.76 2528.09,1154.07 2529.98,1156.59 C2531.90,1159.06 2536.78,1160.79 2539.78,1160.78 C2540.04,1160.77 2540.39,1160.71 2540.84,1160.59" fill="none" stroke="rgb(255, 255, 255)" stroke-width="16.00" stroke-opacity="1.00" stroke-linejoin="round"/>
<path d="M2536.59,962.73 C2540.44,962.78 2579.35,969.72 2594.42,972.12 C2607.66,973.91 2639.27,977.29 2653.57,978.41 C2665.65,979.10 2700.23,979.84 2716.67,980.07 C2750.14,979.53 2798.89,978.46 2814.17,977.91 C2823.37,977.41 2824.66,976.98 2824.58,976.69" fill="none" stroke="rgb(255, 255, 255)" stroke-width="41.90" stroke-opacity="1.00" stroke-linejoin="round"/>
<path d="M2826.64,967.44 C2825.82,966.74 2819.50,966.93 2818.09,966.96 C2784.63,967.80 2720.95,969.03 2690.73,969.42 C2658.74,969.26 2587.84,968.62 2584.21,968.80 C2582.19,968.89 2581.28,969.06 2581.36,969.22" fill="none" stroke="rgb(255, 255, 255)" stroke-width="41.90" stroke-opacity="1.00" stroke-linejoin="round"/>
<path d="M2577.95,979.09 C2576.72,979.23 2576.04,979.62 2575.05,981.00 C2572.33,984.85 2568.30,996.87 2565.51,1006.99 C2562.82,1017.66 2556.87,1046.64 2553.89,1066.38 C2552.90,1073.62 2551.05,1089.93 2550.64,1095.72 C2549.93,1108.62 2550.37,1133.02 2551.31,1140.42 C2551.86,1144.79 2551.89,1145.30 2551.86,1145.81 C2551.55,1143.33 2551.48,1142.08 2551.56,1140.01 C2551.79,1132.07 2552.28,1116.23 2552.53,1108.33 C2552.55,1107.71 2552.57,1107.08 2552.59,1106.46" fill="none" stroke="rgb(255, 255, 255)" stroke-width="41.90" stroke-opacity="1.00" stroke-linejoin="round"/>
<path d="M2554.09,979.09 C2554.09,979.09 2552.61,979.20 2552.61,979.20 C2551.19,984.58 2547.52,1020.86 2546.35,1036.27 C2545.40,1052.28 2545.36,1084.89 2545.81,1095.87 C2546.31,1103.77 2548.10,1114.78 2548.50,1115.64" fill="none" stroke="rgb(255, 255, 255)" stroke-width="41.90" stroke-opacity="1.00" stroke-linejoin="round"/>
<path d="M2552.72,1148.86 C2552.72,1148.86 2553.31,1150.27 2553.31,1150.27 C2556.45,1150.89 2563.12,1150.30 2564.68,1150.17 C2596.47,1147.15 2656.06,1141.31 2687.25,1140.45 C2704.28,1140.35 2738.13,1142.42 2755.39,1144.07 C2768.91,1145.32 2803.46,1148.16 2811.33,1147.48 C2812.28,1147.39 2820.14,1146.08 2820.12,1146.08" fill="none" stroke="rgb(255, 255, 255)" stroke-width="41.90" stroke-opacity="1.00" stroke-linejoin="round"/>
<path d="M2821.36,1146.82 C2821.37,1145.06 2820.71,1113.31 2819.12,1089.12 C2817.98,1072.57 2815.74,1040.37 2814.63,1024.73 C2813.91,1015.42 2812.05,991.00 2812.04,987.84" fill="none" stroke="rgb(255, 255, 255)" stroke-width="41.90" stroke-opacity="1.00" stroke-linejoin="round"/>
<path d="M2818.63,977.73 C2819.24,977.30 2820.10,982.08 2820.56,988.00 C2821.10,996.54 2822.08,1013.73 2821.99,1018.73 C2821.86,1024.64 2818.19,1063.44 2816.44,1080.24 C2809.92,1133.83 2809.17,1141.24 2809.08,1142.16" fill="none" stroke="rgb(255, 255, 255)" stroke-width="41.90" stroke-opacity="1.00" stroke-linejoin="round"/>
<path d="M2793.74,980.45 C2792.98,981.60 2792.78,982.45 2792.86,984.63 C2792.87,984.87 2793.29,1009.06 2793.46,1017.74 C2793.53,1031.59 2791.12,1060.46 2789.85,1074.71 C2786.34,1107.81 2782.29,1140.60 2781.81,1144.36" fill="none" stroke="rgb(255, 255, 255)" stroke-width="41.90" stroke-opacity="1.00" stroke-linejoin="round"/>
<path d="M2796.81,1114.09 C2795.91,1114.69 2794.93,1115.07 2793.84,1115.08 C2791.77,1115.07 2771.86,1109.38 2765.34,1108.60 C2756.19,1107.55 2725.07,1107.69 2710.21,1107.95 C2694.69,1108.43 2664.98,1109.67 2650.81,1110.42 C2634.69,1111.71 2602.20,1114.58 2585.83,1116.16 C2574.17,1117.47 2566.60,1118.68 2558.07,1120.36" fill="none" stroke="rgb(255, 255, 255)" stroke-width="41.90" stroke-opacity="1.00" stroke-linejoin="round"/>
<path d="M2612.72,999.54 C2612.72,999.54 2611.13,996.95 2611.13,996.95 C2608.96,999.08 2606.80,1002.19 2605.36,1005.60 C2603.16,1010.91 2598.51,1026.41 2597.14,1032.61 C2595.65,1039.49 2590.23,1083.77 2589.30,1095.96 C2588.83,1103.40 2588.78,1119.18 2588.92,1126.45 C2589.18,1134.55 2590.13,1142.64 2590.82,1146.69" fill="none" stroke="rgb(255, 255, 255)" stroke-width="41.90" stroke-opacity="1.00" stroke-linejoin="round"/>
<path d="M2634.54,981.82 C2634.54,981.82 2634.37,980.68 2634.37,980.68 C2632.41,981.74 2631.45,982.46 2630.45,983.76 C2628.16,986.79 2625.90,991.46 2624.40,995.98 C2622.40,1002.13 2619.89,1014.99 2618.62,1026.42 C2617.32,1040.89 2614.80,1072.08 2613.79,1089.74 C2613.14,1105.25 2612.38,1123.53 2612.31,1127.18" fill="none" stroke="rgb(255, 255, 255)" stroke-width="41.90" stroke-opacity="1.00" stroke-linejoin="round"/>
<path d="M2643.40,994.77 C2640.89,993.47 2637.94,993.14 2636.45,994.38 C2635.20,995.45 2634.34,1001.97 2634.21,1007.21 C2634.15,1023.21 2634.33,1057.70 2634.86,1069.82 C2638.41,1126.83 2639.27,1134.24 2639.38,1135.16" fill="none" stroke="rgb(255, 255, 255)" stroke-width="41.90" stroke-opacity="1.00" stroke-linejoin="round"/>
<path d="M2661.13,995.45 C2659.88,996.30 2659.09,997.25 2658.54,998.92 C2657.15,1003.20 2656.63,1013.43 2656.66,1022.52 C2656.83,1039.03 2657.33,1071.87 2657.67,1088.21 C2658.51,1109.54 2659.67,1127.86 2659.89,1131.26" fill="none" stroke="rgb(255, 255, 255)" stroke-width="41.90" stroke-opacity="1.00" stroke-linejoin="round"/>
<path d="M2690.45,970.91 C2690.20,972.03 2689.43,975.04 2688.10,980.93 C2686.57,987.97 2684.68,999.76 2684.06,1012.12 C2683.68,1026.64 2683.16,1056.84 2683.03,1072.52 C2683.17,1081.79 2683.61,1097.75 2683.91,1104.43 C2684.42,1112.84 2685.48,1120.45 2685.82,1122.80" fill="none" stroke="rgb(255, 255, 255)" stroke-width="41.90" stroke-opacity="1.00" stroke-linejoin="round"/>
<path d="M2709.54,984.54 C2708.80,985.43 2708.52,986.16 2708.43,987.73 C2708.19,992.49 2711.02,1032.75 2711.68,1047.26 C2712.28,1064.07 2713.67,1097.64 2714.46,1114.40 C2714.97,1121.20 2715.83,1132.19 2715.95,1132.19" fill="none" stroke="rgb(255, 255, 255)" stroke-width="41.90" stroke-opacity="1.00" stroke-linejoin="round"/>
<path d="M2728.63,995.45 C2728.63,995.45 2729.77,995.62 2729.77,995.62 C2732.48,1006.98 2734.40,1016.31 2735.21,1023.27 C2736.80,1038.29 2740.13,1069.35 2741.87,1085.38 C2743.94,1101.43 2747.52,1124.06 2749.67,1134.11" fill="none" stroke="rgb(255, 255, 255)" stroke-width="41.90" stroke-opacity="1.00" stroke-linejoin="round"/>
<path d="M2761.36,997.50 C2761.44,997.61 2761.49,997.74 2761.53,997.90 C2763.36,1005.96 2764.88,1040.87 2765.50,1057.10 C2765.81,1066.80 2766.40,1084.53 2766.67,1092.56 C2767.35,1111.67 2768.11,1122.01 2768.18,1122.92" fill="none" stroke="rgb(255, 255, 255)" stroke-width="41.90" stroke-opacity="1.00" stroke-linejoin="round"/>
<path d="M2860.90,975.00 C2862.88,975.02 2866.99,974.48 2869.88,973.59 C2885.38,968.83 2926.11,956.01 2933.51,953.14 C2936.48,951.99 2949.93,945.60 2955.71,942.86 C2961.39,940.07 2974.06,931.53 2977.96,927.45 C2979.93,925.38 2982.46,922.17 2983.39,920.88" fill="none" stroke="rgb(255, 255, 255)" stroke-width="41.90" stroke-opacity="1.00" stroke-linejoin="round"/>
<path d="M2990.45,910.91 C2985.43,915.99 2974.88,926.55 2970.03,929.79 C2963.80,933.89 2951.84,940.20 2945.12,942.74 C2938.33,945.26 2922.22,950.73 2916.82,952.06 C2911.25,953.40 2896.11,955.51 2887.98,956.42 C2876.48,957.50 2871.02,957.52 2866.14,957.27" fill="none" stroke="rgb(255, 255, 255)" stroke-width="41.90" stroke-opacity="1.00" stroke-linejoin="round"/>
<path d="M2869.08,979.09 C2869.72,979.12 2871.75,979.05 2872.20,979.38 C2873.52,980.36 2876.30,989.00 2876.88,990.79 C2880.13,1000.94 2885.26,1013.89 2889.45,1021.23 C2891.57,1024.86 2895.91,1030.51 2898.90,1032.85 C2901.03,1034.49 2909.28,1039.26 2911.08,1041.17 C2911.45,1041.57 2911.93,1042.24 2912.53,1043.18" fill="none" stroke="rgb(255, 255, 255)" stroke-width="41.90" stroke-opacity="1.00" stroke-linejoin="round"/>
<path d="M2901.81,980.45 C2901.81,980.45 2900.56,979.43 2900.56,979.43 C2902.95,982.60 2906.02,985.21 2909.38,987.30 C2918.33,992.77 2928.29,997.27 2936.45,999.91 C2939.96,1001.02 2948.15,1003.50 2949.39,1003.82 C2952.99,1004.71 2957.31,1004.97 2961.34,1004.27 C2963.02,1003.97 2964.10,1003.66 2964.58,1003.33 C2964.97,1003.06 2965.50,1002.39 2966.16,1001.31" fill="none" stroke="rgb(255, 255, 255)" stroke-width="41.90" stroke-opacity="1.00" stroke-linejoin="round"/>
<path d="M2906.30,1003.63 C2908.99,1006.35 2910.49,1010.06 2910.99,1010.38 C2911.31,1010.58 2912.10,1010.77 2913.38,1010.96" fill="none" stroke="rgb(255, 255, 255)" stroke-width="41.90" stroke-opacity="1.00" stroke-linejoin="round"/>
<path d="M2939.99,962.73 C2939.01,963.11 2937.99,964.79 2937.77,966.84 C2937.61,968.38 2939.32,975.22 2941.52,978.65 C2944.51,983.21 2952.42,991.63 2954.55,993.22 C2954.95,993.51 2955.99,994.26 2957.67,995.45" fill="none" stroke="rgb(255, 255, 255)" stroke-width="41.90" stroke-opacity="1.00" stroke-linejoin="round"/>
<path d="M2939.99,965.45 C2939.99,965.45 2938.86,965.45 2938.86,965.45 C2940.85,963.29 2954.44,955.66 2961.74,951.60 C2965.47,949.49 2973.07,944.77 2974.45,943.82 C2979.71,940.11 2982.61,936.95 2984.74,933.72 C2986.03,931.71 2986.77,928.71 2986.90,927.55" fill="none" stroke="rgb(255, 255, 255)" stroke-width="41.90" stroke-opacity="1.00" stroke-linejoin="round"/>
<path d="M2368.63,912.27 C2367.73,913.99 2367.31,915.61 2367.39,917.95 C2367.55,922.14 2369.03,929.49 2370.11,932.68 C2370.97,935.15 2374.07,941.68 2375.64,944.16 C2377.26,946.69 2382.00,952.48 2384.16,954.61 C2386.41,956.79 2392.13,961.22 2394.76,962.66 C2397.40,964.09 2404.39,966.59 2407.31,967.24 C2412.56,968.39 2426.54,968.80 2434.56,967.67 C2444.19,966.25 2454.94,963.18 2464.60,959.37 C2469.26,957.56 2475.26,955.35 2475.25,955.34 C2475.21,955.30 2474.17,954.94 2472.15,954.26 C2470.77,953.81 2467.80,952.61 2465.79,951.74" fill="none" stroke="rgb(255, 255, 255)" stroke-width="41.90" stroke-opacity="1.00" stroke-linejoin="round"/>
<path d="M2391.13,925.91 C2391.13,925.91 2389.43,926.13 2389.43,926.13 C2394.21,930.32 2405.41,939.97 2412.10,944.43 C2417.12,947.75 2431.44,955.57 2437.80,958.98 C2450.82,965.58 2472.44,974.75 2479.94,977.86 C2483.38,979.29 2487.70,981.11 2489.17,981.76" fill="none" stroke="rgb(255, 255, 255)" stroke-width="41.90" stroke-opacity="1.00" stroke-linejoin="round"/>
<path d="M2399.99,970.91 C2400.54,970.91 2401.16,971.49 2401.36,972.48 C2401.68,974.24 2400.46,979.15 2398.73,983.24 C2397.32,986.59 2395.24,993.34 2395.33,995.57 C2395.43,996.88 2396.28,998.16 2397.42,998.84 C2399.49,999.96 2403.64,1000.09 2406.66,999.26 C2413.82,997.24 2426.27,992.89 2432.01,990.51 C2439.19,987.50 2462.97,976.03 2465.24,974.93" fill="none" stroke="rgb(255, 255, 255)" stroke-width="41.90" stroke-opacity="1.00" stroke-linejoin="round"/>
<path d="M2391.81,1000.91 C2390.77,1001.59 2388.64,1002.95 2388.36,1003.25 C2387.94,1003.74 2388.16,1005.93 2388.78,1006.41 C2389.62,1007.01 2392.17,1007.12 2393.68,1006.74 C2396.60,1005.95 2408.45,1001.97 2418.44,999.46 C2433.19,995.63 2462.10,985.62 2476.75,980.38 C2503.34,970.75 2508.58,968.55 2513.36,966.02" fill="none" stroke="rgb(255, 255, 255)" stroke-width="41.90" stroke-opacity="1.00" stroke-linejoin="round"/>
<path d="M2458.63,995.45 C2456.42,1002.98 2452.32,1017.45 2450.44,1024.39 C2449.24,1029.21 2448.19,1034.87 2448.18,1037.41" fill="none" stroke="rgb(255, 255, 255)" stroke-width="41.90" stroke-opacity="1.00" stroke-linejoin="round"/>
<path d="M2453.18,955.23 C2453.18,955.23 2454.46,949.45 2454.46,949.45 C2454.46,949.45 2454.54,953.54 2454.54,953.54" fill="none" stroke="rgb(255, 255, 255)" stroke-width="41.90" stroke-opacity="1.00" stroke-linejoin="round"/>
<path d="M2445.68,1033.63 C2445.22,1033.54 2444.55,1033.85 2443.77,1034.73 C2442.86,1035.79 2441.36,1038.51 2440.70,1040.44 C2439.42,1044.35 2440.49,1048.41 2441.10,1050.02 C2444.47,1046.15 2454.28,1037.52 2460.98,1030.50 C2466.23,1024.82 2476.52,1013.64 2481.56,1008.14 C2485.66,1003.79 2493.46,996.62 2499.61,989.67 C2500.87,988.24 2501.41,987.70 2501.90,987.31" fill="none" stroke="rgb(255, 255, 255)" stroke-width="41.90" stroke-opacity="1.00" stroke-linejoin="round"/>
<path d="M2502.27,1017.27 C2502.27,1017.27 2502.27,1016.30 2502.27,1016.30 C2501.46,1017.62 2500.89,1024.65 2500.97,1026.39 C2501.07,1028.42 2501.49,1031.70 2501.84,1033.68" fill="none" stroke="rgb(255, 255, 255)" stroke-width="16.00" stroke-opacity="1.00" stroke-linejoin="round"/>
<path d="M2533.24,940.50 Q2677.69,940.50 2822.13,940.50 Q2844.63,940.50 2844.63,963.00 Q2844.63,1055.37 2844.63,1147.75 Q2844.63,1170.25 2822.13,1170.25 Q2677.69,1170.25 2533.24,1170.25 Q2510.74,1170.25 2510.74,1147.75 Q2510.74,1055.37 2510.74,963.00 Q2510.74,940.50 2533.24,940.50 Z" fill="none" stroke="rgb(139, 191, 210)" stroke-width="20.00" stroke-opacity="1.00" stroke-linejoin="round"/>
<path d="M2514.05,950.41 L2676.03,1072.73" fill="none" stroke="rgb(139, 191, 210)" stroke-width="20.00" stroke-opacity="1.00" stroke-linejoin="round"/>
<path d="M2677.69,1076.03 L2831.40,958.68" fill="none" stroke="rgb(139, 191, 210)" stroke-width="20.00" stroke-opacity="1.00" stroke-linejoin="round"/>
<path d="M2844.63,958.68 C2844.67,957.07 2845.15,955.49 2846.33,953.99 C2848.77,950.96 2854.87,946.89 2857.55,945.38 C2863.44,942.08 2872.89,938.63 2883.25,936.04 C2891.32,934.16 2910.42,929.45 2915.46,927.94 C2923.09,925.59 2939.59,919.48 2943.15,917.95 C2951.18,914.47 2962.98,907.41 2970.09,902.06 C2981.01,893.66 2985.78,890.34 2987.84,890.11 C2989.00,890.01 2992.34,890.65 2993.57,891.25 C2996.39,892.68 3001.05,897.88 3003.09,901.36 C3004.70,904.19 3007.35,911.15 3008.02,914.21 C3008.71,917.50 3009.17,925.51 3008.73,929.30 C3008.18,933.68 3006.27,939.76 3004.10,943.95 C3002.35,947.26 2998.31,952.79 2994.89,955.76 C2993.13,957.27 2985.63,962.70 2982.40,964.76 C2976.67,968.37 2967.75,971.38 2965.32,971.75 C2964.68,971.84 2963.60,971.91 2963.64,971.90" fill="none" stroke="rgb(139, 191, 210)" stroke-width="16.00" stroke-opacity="1.00" stroke-linejoin="round"/>
<path d="M2964.46,971.90 C2964.46,971.90 2963.64,971.90 2963.64,971.90 C2965.92,971.90 2970.69,974.32 2972.86,975.84 C2975.92,978.04 2980.07,984.07 2981.46,987.16 C2982.89,990.43 2984.78,996.66 2985.21,1000.10 C2985.61,1003.58 2985.08,1009.11 2984.24,1011.81 C2983.55,1013.90 2980.29,1017.48 2977.14,1019.97 C2974.38,1022.10 2968.53,1024.64 2965.48,1025.43 C2962.44,1026.19 2956.77,1026.42 2952.71,1026.15 C2947.38,1025.75 2940.99,1025.00 2938.35,1024.31 C2934.13,1023.19 2928.53,1020.44 2927.33,1019.85" fill="none" stroke="rgb(139, 191, 210)" stroke-width="16.00" stroke-opacity="1.00" stroke-linejoin="round"/>
<path d="M2927.27,1021.49 C2928.57,1023.06 2930.22,1027.42 2930.98,1031.24 C2931.65,1034.86 2931.52,1041.79 2930.67,1046.28 C2929.72,1051.10 2927.99,1056.52 2926.42,1058.36 C2924.00,1061.05 2920.95,1062.83 2916.98,1063.83 C2914.04,1064.53 2908.35,1063.76 2903.97,1062.50 C2900.02,1061.32 2894.21,1058.56 2891.16,1056.55 C2885.71,1052.91 2874.19,1042.66 2870.43,1038.08 C2866.27,1032.95 2859.44,1020.66 2856.86,1013.33 C2854.63,1006.93 2851.25,993.39 2850.60,987.67 C2849.75,979.98 2850.67,966.86 2852.03,961.60 C2853.42,956.35 2861.21,945.52 2862.63,944.30 C2864.49,942.76 2867.87,940.90 2869.39,940.68 C2870.40,940.55 2872.72,940.46 2872.57,940.07 C2872.53,939.97 2872.51,939.83 2872.54,939.63" fill="none" stroke="rgb(139, 191, 210)" stroke-width="16.00" stroke-opacity="1.00" stroke-linejoin="round"/>
<path d="M2851.24,971.90 C2851.24,971.60 2851.24,971.30 2851.24,971.01 C2851.27,968.56 2852.88,964.92 2855.19,962.65 C2857.23,960.70 2862.65,957.50 2865.60,956.17 C2868.52,954.87 2874.40,953.13 2877.52,952.58 C2880.77,952.03 2888.04,952.20 2891.52,952.90 C2894.21,953.47 2900.87,956.10 2903.85,958.30 C2906.67,960.43 2910.78,966.17 2911.88,969.11 C2912.84,971.78 2913.13,977.82 2912.78,979.43 C2912.29,981.55 2908.83,987.63 2907.31,989.21 C2905.64,990.89 2900.04,993.65 2896.45,993.99 C2892.89,994.29 2886.34,992.07 2883.92,990.14 C2883.04,989.41 2880.95,987.35 2880.48,986.67 C2879.78,985.62 2879.35,983.63 2879.33,981.53 C2879.35,979.43 2880.53,977.59 2881.79,977.54 C2882.06,977.54 2882.35,977.81 2882.64,978.34" fill="none" stroke="rgb(139, 191, 210)" stroke-width="16.00" stroke-opacity="1.00" stroke-linejoin="round"/>
<path d="M2505.37,958.68 C2505.33,957.07 2504.85,955.49 2503.67,953.99 C2501.23,950.96 2495.13,946.89 2492.45,945.38 C2486.56,942.08 2477.11,938.63 2466.75,936.04 C2458.68,934.16 2439.58,929.45 2434.54,927.94 C2426.91,925.59 2410.41,919.48 2406.85,917.95 C2398.82,914.47 2387.02,907.41 2379.91,902.06 C2368.99,893.66 2364.22,890.34 2362.16,890.11 C2361.00,890.01 2357.66,890.65 2356.43,891.25 C2353.61,892.68 2348.95,897.88 2346.91,901.36 C2345.30,904.19 2342.65,911.15 2341.98,914.21 C2341.29,917.50 2340.83,925.51 2341.27,929.30 C2341.82,933.68 2343.73,939.76 2345.90,943.95 C2347.65,947.26 2351.69,952.79 2355.11,955.76 C2356.87,957.27 2364.37,962.70 2367.60,964.76 C2373.33,968.37 2382.25,971.38 2384.68,971.75 C2385.32,971.84 2386.40,971.91 2386.36,971.90" fill="none" stroke="rgb(139, 191, 210)" stroke-width="16.00" stroke-opacity="1.00" stroke-linejoin="round"/>
<path d="M2385.54,971.90 C2385.54,971.90 2386.36,971.90 2386.36,971.90 C2384.08,971.90 2379.31,974.32 2377.14,975.84 C2374.08,978.04 2369.93,984.07 2368.54,987.16 C2367.11,990.43 2365.22,996.66 2364.79,1000.10 C2364.39,1003.58 2364.92,1009.11 2365.76,1011.81 C2366.45,1013.90 2369.71,1017.48 2372.86,1019.97 C2375.62,1022.10 2381.47,1024.64 2384.52,1025.43 C2387.56,1026.19 2393.23,1026.42 2397.29,1026.15 C2402.62,1025.75 2409.01,1025.00 2411.65,1024.31 C2415.87,1023.19 2421.47,1020.44 2422.67,1019.85" fill="none" stroke="rgb(139, 191, 210)" stroke-width="16.00" stroke-opacity="1.00" stroke-linejoin="round"/>
<path d="M2422.73,1021.49 C2421.43,1023.06 2419.78,1027.42 2419.02,1031.24 C2418.35,1034.86 2418.48,1041.79 2419.33,1046.28 C2420.28,1051.10 2422.01,1056.52 2423.58,1058.36 C2426.00,1061.05 2429.05,1062.83 2433.02,1063.83 C2435.96,1064.53 2441.65,1063.76 2446.03,1062.50 C2449.98,1061.32 2455.79,1058.56 2458.84,1056.55 C2464.29,1052.91 2475.81,1042.66 2479.57,1038.08 C2483.73,1032.95 2490.56,1020.66 2493.14,1013.33 C2495.37,1006.93 2498.75,993.39 2499.40,987.67 C2500.25,979.98 2499.33,966.86 2497.97,961.60 C2496.58,956.35 2488.79,945.52 2487.37,944.30 C2485.51,942.76 2482.13,940.90 2480.61,940.68 C2479.60,940.55 2477.28,940.46 2477.43,940.07 C2477.47,939.97 2477.49,939.83 2477.46,939.63" fill="none" stroke="rgb(139, 191, 210)" stroke-width="16.00" stroke-opacity="1.00" stroke-linejoin="round"/>
<path d="M2498.76,971.90 C2498.76,971.60 2498.76,971.30 2498.76,971.01 C2498.73,968.56 2497.12,964.92 2494.81,962.65 C2492.77,960.70 2487.35,957.50 2484.40,956.17 C2481.48,954.87 2475.60,953.13 2472.48,952.58 C2469.23,952.03 2461.96,952.20 2458.48,952.90 C2455.79,953.47 2449.13,956.10 2446.15,958.30 C2443.33,960.43 2439.22,966.17 2438.12,969.11 C2437.16,971.78 2436.87,977.82 2437.22,979.43 C2437.71,981.55 2441.17,987.63 2442.69,989.21 C2444.36,990.89 2449.96,993.65 2453.55,993.99 C2457.11,994.29 2463.66,992.07 2466.08,990.14 C2466.96,989.41 2469.05,987.35 2469.52,986.67 C2470.22,985.62 2470.65,983.63 2470.67,981.53 C2470.65,979.43 2469.47,977.59 2468.21,977.54 C2467.94,977.54 2467.65,977.81 2467.36,978.34" fill="none" stroke="rgb(139, 191, 210)" stroke-width="16.00" stroke-opacity="1.00" stroke-linejoin="round"/>
</g>
</svg>
